<svg width="200" height="211" viewBox="0 0 200 211" fill="none" xmlns="http://www.w3.org/2000/svg">
<path d="M16.0456 66.5C8.99461 79.7748 5 94.9209 5 111C5 163.467 47.5329 206 100 206C152.467 206 195 163.467 195 111C195 94.9209 191.005 79.7748 183.954 66.5M16.0456 66.5C16.6732 65.3183 17.3251 64.1514 18.0006 63L16.0456 66.5ZM183.954 66.5C183.327 65.3183 182.675 64.1514 181.999 63L183.954 66.5Z" stroke="#008A7E" stroke-width="10"/>
<path d="M149.171 1.53406C149.682 1.67221 150.193 1.80999 150.704 1.94744C151.768 2.23465 152.83 2.52582 153.892 2.81999C155.245 3.19475 156.601 3.5598 157.958 3.92199C159.011 4.20421 160.063 4.49132 161.115 4.77989C161.614 4.91635 162.114 5.05138 162.614 5.18489C169.139 6.93456 169.139 6.93456 170.988 9.8711C172.628 12.7614 171.921 15.9233 171.108 18.997C171.054 19.1906 171 19.3841 170.945 19.5835C170.782 20.1727 170.627 20.7637 170.473 21.3555C168.738 27.7782 168.738 27.7782 165.892 29.4932C164.066 30.4199 162.381 30.4261 160.393 30.268C160.172 30.2521 159.951 30.2363 159.723 30.2199C159.181 30.1809 158.64 30.1392 158.099 30.097C158.023 30.6719 158.023 30.6719 157.945 31.2584C155.893 46.5843 152.873 61.5973 149.107 76.5863C149.375 76.5836 149.643 76.5809 149.919 76.5782C152.441 76.554 154.964 76.5356 157.487 76.5237C158.784 76.5174 160.081 76.5089 161.377 76.4952C162.629 76.4821 163.881 76.4749 165.132 76.4717C165.61 76.4695 166.087 76.4651 166.565 76.4586C167.234 76.4499 167.902 76.4486 168.571 76.4492C168.952 76.4465 169.333 76.4438 169.725 76.4411C170.856 76.6116 171.207 76.8858 171.887 77.7938C172.015 78.4208 172.015 78.4208 171.981 79.0992C171.97 79.356 171.959 79.6128 171.947 79.8774C171.927 80.1549 171.908 80.4324 171.887 80.7183C171.869 81.0103 171.852 81.3024 171.834 81.6033C170.814 96.1454 165.612 110.133 156.601 121.566C156.4 121.826 156.2 122.086 155.993 122.354C154.616 124.1 153.144 125.745 151.636 127.377C151.361 127.677 151.361 127.677 151.079 127.983C146.861 132.497 141.789 136.155 136.556 139.377C135.608 139.874 135.608 139.874 135.32 140.585C135.288 141.027 135.273 141.47 135.267 141.914C135.097 149.182 135.097 149.182 132.28 152.141C130.216 154.063 128.363 154.865 125.506 154.858C125.164 154.86 125.164 154.86 124.816 154.863C124.055 154.868 123.295 154.869 122.534 154.87C121.987 154.873 121.441 154.876 120.894 154.879C119.411 154.887 117.927 154.891 116.444 154.894C115.516 154.896 114.589 154.898 113.661 154.901C110.755 154.909 107.849 154.915 104.943 154.917C101.594 154.92 98.2457 154.93 94.8971 154.948C92.3049 154.961 89.7128 154.967 87.1206 154.968C85.5741 154.968 84.0279 154.972 82.4815 154.983C81.0255 154.993 79.5697 154.994 78.1137 154.989C77.5816 154.988 77.0494 154.991 76.5174 154.997C73.0698 155.033 70.2404 154.781 67.5141 152.375C65.1089 149.919 64.7443 147.142 64.6802 143.838C64.6479 141.838 64.6479 141.838 63.9828 139.981C63.2098 139.306 62.3627 138.781 61.4913 138.245C60.9973 137.927 60.504 137.609 60.0113 137.289C59.7683 137.132 59.5253 136.975 59.2749 136.813C57.6722 135.753 56.1822 134.552 54.691 133.339C54.5373 133.216 54.3835 133.092 54.225 132.964C50.1964 129.705 46.42 126.024 43.3011 121.868C43.1719 121.697 43.0426 121.527 42.9095 121.351C38.0398 114.898 34.1861 107.822 31.6115 100.133C31.5274 99.882 31.4432 99.6311 31.3565 99.3727C28.9831 92.1607 27.8561 84.7755 28.0147 77.19C28.9344 76.6548 29.6126 76.5069 30.6704 76.49C31.1024 76.481 31.1024 76.481 31.543 76.4719C31.8515 76.4684 32.16 76.4649 32.4779 76.4613C32.9544 76.4525 32.9544 76.4525 33.4405 76.4436C34.4543 76.4255 35.4682 76.4115 36.4822 76.3976C37.1698 76.3861 37.8575 76.3743 38.5452 76.3622C40.2304 76.3333 41.9156 76.3076 43.6009 76.2844C43.4635 76.0716 43.3262 75.8588 43.1847 75.6396C42.1411 74.008 41.1351 72.3855 40.2851 70.6431C40.1854 70.439 40.0858 70.235 39.9832 70.0248C34.9926 59.599 33.2747 46.6419 36.8006 35.4931C37.6557 33.0958 38.7255 30.9159 40.9033 29.4932C46.044 27.7674 51.924 30.2301 56.4894 32.512C62.8144 35.7528 67.7287 40.1373 72.6751 45.1909C73.1743 45.6944 73.6738 46.1976 74.1738 46.7003C74.3882 46.4372 74.6026 46.1742 74.8236 45.9032C81.2734 38.0936 91.1086 30.1476 101.536 29.124C102.258 29.0769 102.975 29.0522 103.698 29.0404C103.92 29.0348 104.142 29.0292 104.371 29.0234C106.018 29.0427 106.993 29.4431 108.343 30.3989C111.795 34.1608 112.689 40.569 112.839 45.4928C112.851 45.8274 112.863 46.1621 112.876 46.5069C113.022 54.5695 111.444 62.5659 108.081 69.8884C107.994 70.0793 107.907 70.2702 107.817 70.4669C106.837 72.5156 105.647 74.32 104.447 76.2844C110.184 76.2844 115.921 76.2844 121.832 76.2844C122.295 74.5037 122.759 72.723 123.237 70.8883C127.094 56.3125 131.76 41.9436 137.483 28.0002C137.59 27.736 137.698 27.4718 137.809 27.1996C137.901 26.9766 137.993 26.7536 138.087 26.5239C138.338 25.8098 138.486 25.1064 138.617 24.3613C138.334 24.2947 138.334 24.2947 138.045 24.2269C135.693 23.606 134.047 22.6729 132.51 20.7576C131.127 18.1335 131.219 15.7017 131.96 12.9088C132.017 12.6901 132.073 12.4714 132.131 12.2461C132.25 11.7871 132.371 11.3284 132.493 10.8702C132.677 10.176 132.854 9.48016 133.03 8.78387C133.733 6.07149 134.413 3.46088 136.668 1.60717C136.832 1.46786 136.996 1.32855 137.165 1.18502C140.649 -1.14958 145.492 0.512064 149.171 1.53406Z" fill="#80B4FA"/>
<path d="M29.2136 90.7746C73.3285 90.7746 117.443 90.7746 162.895 90.7746C160.987 101.342 156.521 111.067 150.306 119.755C150.136 120.014 149.965 120.273 149.789 120.539C149.107 121.264 149.107 121.264 148.282 121.454C147.802 121.454 147.802 121.454 147.312 121.454C146.942 121.458 146.572 121.462 146.19 121.466C145.779 121.463 145.368 121.46 144.956 121.456C144.52 121.458 144.084 121.46 143.647 121.463C142.446 121.469 141.246 121.466 140.045 121.462C138.751 121.458 137.456 121.463 136.162 121.468C133.625 121.474 131.089 121.473 128.553 121.469C126.492 121.465 124.431 121.465 122.37 121.466C121.93 121.467 121.93 121.467 121.481 121.467C120.886 121.467 120.291 121.468 119.696 121.468C114.11 121.473 108.524 121.468 102.938 121.46C98.1434 121.453 93.3485 121.454 88.5536 121.461C82.9886 121.469 77.4237 121.472 71.8587 121.468C71.2655 121.467 70.6723 121.467 70.0791 121.466C69.6412 121.466 69.6412 121.466 69.1945 121.466C67.1356 121.464 65.0767 121.466 63.0178 121.47C60.5091 121.474 58.0005 121.473 55.4918 121.465C54.2113 121.461 52.9309 121.46 51.6504 121.465C50.4788 121.469 49.3073 121.467 48.1356 121.459C47.7113 121.457 47.2869 121.458 46.8625 121.461C43.2909 121.49 43.2909 121.49 42.3253 120.541C42.1528 120.282 41.9802 120.022 41.8025 119.755C41.6158 119.526 41.4292 119.297 41.2369 119.062C36.9436 113.171 33.7614 106.594 31.4616 99.68C31.3389 99.3132 31.2163 98.9463 31.0899 98.5684C30.2519 95.9635 29.7539 93.4952 29.2136 90.7746Z" fill="#CAE1FE"/>
<path d="M56.4894 32.512C62.8144 35.7528 67.7287 40.1373 72.6751 45.1909C73.1743 45.6944 73.6738 46.1976 74.1738 46.7003C74.4954 46.3057 74.4954 46.3057 74.8236 45.9032C81.2734 38.0936 91.1086 30.1476 101.536 29.124C102.258 29.0769 102.975 29.0522 103.698 29.0404C103.92 29.0348 104.142 29.0292 104.371 29.0234C106.018 29.0427 106.993 29.4431 108.343 30.3989C111.795 34.1608 112.689 40.569 112.839 45.4928C112.851 45.8274 112.863 46.1621 112.876 46.5069C113.07 57.2258 110.248 67.7658 104.147 76.5863C103.553 77.1848 102.374 76.9393 101.561 76.9427C101.319 76.9449 101.076 76.9471 100.827 76.9493C100.008 76.9562 99.1898 76.9609 98.3713 76.9655C97.787 76.9699 97.2027 76.9744 96.6185 76.9789C91.2792 77.0183 85.9398 77.0381 80.6005 77.0537C76.6519 77.0655 72.7035 77.0861 68.755 77.1185C65.9808 77.1405 63.2068 77.1521 60.4326 77.1561C58.7747 77.1587 57.1172 77.1661 55.4594 77.1846C53.899 77.2019 52.3392 77.2064 50.7787 77.201C50.2063 77.2012 49.6339 77.2062 49.0616 77.2161C44.7379 77.2872 44.7379 77.2872 43.4062 76.2986C42.8617 75.6087 42.4752 74.9657 42.1022 74.1712C41.8886 73.826 41.6737 73.4816 41.4571 73.1383C35.5542 62.0546 33.0252 48.3301 36.6154 36.0787C37.4384 33.4766 38.5634 31.0218 40.9033 29.4932C46.044 27.7674 51.924 30.2301 56.4894 32.512Z" fill="#94D5A4"/>
<path d="M43.3011 121.566C80.5911 121.566 117.881 121.566 156.301 121.566C155.615 122.718 155.048 123.527 154.165 124.491C153.095 125.664 153.095 125.664 152.044 126.855C147.636 131.925 142.055 136.209 136.261 139.573C135.581 139.927 135.581 139.927 135.32 140.585C135.288 141.027 135.273 141.47 135.267 141.914C135.097 149.182 135.097 149.182 132.28 152.141C130.216 154.063 128.363 154.865 125.506 154.858C125.278 154.859 125.05 154.861 124.816 154.863C124.055 154.868 123.295 154.869 122.534 154.87C121.987 154.873 121.441 154.876 120.894 154.879C119.411 154.887 117.927 154.891 116.444 154.894C115.516 154.896 114.589 154.898 113.661 154.901C110.755 154.909 107.849 154.915 104.943 154.917C101.594 154.92 98.2457 154.93 94.8971 154.948C92.3049 154.961 89.7128 154.967 87.1206 154.968C85.5741 154.968 84.0279 154.972 82.4815 154.983C81.0255 154.993 79.5697 154.994 78.1137 154.989C77.5816 154.988 77.0494 154.991 76.5174 154.997C73.0698 155.033 70.2404 154.781 67.5141 152.375C65.1089 149.919 64.7443 147.142 64.6802 143.838C64.6479 141.838 64.6479 141.838 63.9828 139.981C63.2098 139.306 62.3627 138.781 61.4913 138.245C60.9973 137.927 60.504 137.609 60.0113 137.289C59.6468 137.053 59.6468 137.053 59.2749 136.813C57.6722 135.753 56.1822 134.552 54.691 133.339C54.5373 133.216 54.3835 133.092 54.225 132.964C50.2271 129.73 46.3179 126.063 43.3011 121.868C43.3011 121.768 43.3011 121.669 43.3011 121.566Z" fill="#7FB3FB"/>
<path d="M149.171 1.53406C149.682 1.67221 150.193 1.80999 150.704 1.94744C151.768 2.23465 152.83 2.52582 153.892 2.81999C155.245 3.19475 156.601 3.5598 157.958 3.92199C159.011 4.20421 160.063 4.49132 161.115 4.77989C161.614 4.91635 162.114 5.05138 162.614 5.18489C169.139 6.93456 169.139 6.93456 170.988 9.8711C172.628 12.7614 171.921 15.9233 171.108 18.997C171.054 19.1906 171 19.3841 170.945 19.5835C170.782 20.1727 170.627 20.7637 170.473 21.3555C168.738 27.7782 168.738 27.7782 165.892 29.4932C164.066 30.4199 162.381 30.4261 160.393 30.268C160.172 30.2521 159.951 30.2363 159.723 30.2199C159.181 30.1809 158.64 30.1392 158.099 30.097C158.048 30.4803 157.997 30.8635 157.945 31.2584C156.027 45.5848 153.307 59.6679 149.857 73.6996C149.784 73.9963 149.711 74.2931 149.636 74.5988C149.537 74.9936 149.537 74.9936 149.435 75.3965C149.379 75.6216 149.322 75.8466 149.264 76.0786C149.107 76.5863 149.107 76.5863 148.808 76.8882C147.968 76.9169 147.137 76.9261 146.297 76.9224C145.903 76.9225 145.903 76.9225 145.5 76.9226C144.626 76.9224 143.751 76.92 142.877 76.9176C142.273 76.9171 141.669 76.9167 141.064 76.9164C139.47 76.9152 137.876 76.9122 136.282 76.9089C134.657 76.9058 133.031 76.9044 131.406 76.9029C128.215 76.8997 125.023 76.8945 121.832 76.8882C123.104 71.0059 123.104 71.0059 123.81 68.5358C123.88 68.2873 123.95 68.0388 124.022 67.7827C124.251 66.9745 124.483 66.1672 124.716 65.3602C124.799 65.075 124.881 64.7897 124.965 64.4959C128.668 51.6722 132.749 38.8952 138.03 26.6321C138.315 25.8766 138.484 25.1567 138.617 24.3613C138.428 24.3169 138.24 24.2726 138.045 24.2269C135.693 23.606 134.047 22.6729 132.51 20.7576C131.127 18.1335 131.219 15.7017 131.96 12.9088C132.017 12.6901 132.073 12.4714 132.131 12.2461C132.25 11.7871 132.371 11.3284 132.493 10.8702C132.677 10.176 132.854 9.48016 133.03 8.78387C133.733 6.07149 134.413 3.46088 136.668 1.60717C136.832 1.46786 136.996 1.32855 137.165 1.18502C140.649 -1.14958 145.492 0.512064 149.171 1.53406Z" fill="#DAD6EA"/>
<path d="M103.51 29.097C103.743 29.0882 103.976 29.0795 104.216 29.0705C105.947 29.0514 106.93 29.3804 108.343 30.3989C111.795 34.1608 112.689 40.569 112.839 45.4928C112.857 45.9948 112.857 45.9948 112.876 46.5069C113.07 57.2258 110.248 67.7658 104.147 76.5863C103.847 76.8882 103.847 76.8882 103.126 76.9224C102.813 76.9208 102.501 76.9193 102.179 76.9176C101.842 76.9167 101.505 76.9157 101.157 76.9147C100.803 76.9122 100.448 76.9096 100.082 76.907C99.726 76.9057 99.37 76.9043 99.0031 76.9029C98.1201 76.8993 97.2371 76.8943 96.3541 76.8882C96.8102 75.6923 97.3621 74.6981 98.0588 73.6241C102.805 66.0438 104.886 56.838 104.84 47.9644C104.84 47.7386 104.839 47.5128 104.838 47.2802C104.81 41.1724 104.233 34.4657 99.7484 29.8859C99.5519 29.6915 99.5519 29.6915 99.3514 29.4932C100.738 29.1483 102.09 29.1146 103.51 29.097Z" fill="#78C2A4"/>
<path d="M48.3849 29.3883C56.3942 31.392 63.5339 36.1286 69.378 41.8702C69.5332 42.022 69.6885 42.1738 69.8484 42.3301C71.7347 44.1807 73.484 45.9398 74.7705 48.2798C75.2448 49.1165 75.7925 49.9024 76.3281 50.7002C81.3897 58.4727 83.8536 67.6403 83.7653 76.8882C81.2925 76.8882 78.8196 76.8882 76.2719 76.8882C76.1915 75.8982 76.1112 74.9082 76.0284 73.8882C74.9721 62.1169 70.6958 51.6274 62.4841 43.0777C62.086 42.6534 62.086 42.6534 61.6798 42.2205C56.6124 36.9391 50.2088 33.0273 43.3011 30.7007C42.832 30.5267 42.3636 30.3507 41.8961 30.1724C41.5685 30.0479 41.2408 29.9234 40.9032 29.7951C42.8095 28.5152 46.1747 28.9637 48.3849 29.3883Z" fill="#78C2A4"/>
<path d="M162.895 90.7746C165.368 90.7746 167.841 90.7746 170.388 90.7746C170.05 93.8387 170.05 93.8387 169.685 95.1294C169.604 95.4165 169.522 95.7036 169.439 95.9994C169.35 96.2987 169.262 96.5981 169.171 96.9065C169.078 97.2233 168.984 97.5402 168.888 97.8667C166.836 104.679 163.927 111.429 159.784 117.231C159.272 117.961 159.272 117.961 158.785 118.844C157.214 121.36 157.214 121.36 155.607 121.9C154.379 122.024 153.195 122.033 151.964 122.002C151.493 122.003 151.022 122.007 150.551 122.011C149.261 122.019 147.973 122.005 146.684 121.987C145.292 121.971 143.9 121.976 142.508 121.979C140.097 121.981 137.688 121.97 135.277 121.949C131.793 121.92 128.308 121.91 124.824 121.906C119.17 121.898 113.516 121.874 107.862 121.839C102.371 121.806 96.8796 121.781 91.3881 121.765C91.0495 121.764 90.7108 121.763 90.362 121.762C88.6632 121.758 86.9645 121.753 85.2657 121.749C71.1775 121.711 57.0894 121.647 43.0014 121.566C43.1498 121.267 43.1498 121.267 43.3011 120.962C43.5239 120.964 43.7466 120.966 43.9761 120.967C57.1791 121.062 70.3821 121.134 83.5853 121.178C85.1708 121.184 86.7563 121.189 88.3418 121.195C88.8152 121.196 88.8152 121.196 89.2983 121.198C94.4084 121.216 99.5184 121.25 104.629 121.289C109.872 121.328 115.116 121.352 120.36 121.36C123.596 121.366 126.831 121.384 130.066 121.419C132.285 121.441 134.504 121.448 136.723 121.442C138.004 121.439 139.283 121.444 140.563 121.466C145.791 121.855 145.791 121.855 150.362 120.032C151.196 119.016 151.651 117.965 152.105 116.736C152.356 116.321 152.617 115.912 152.893 115.513C153.538 114.416 154.175 113.316 154.802 112.208C154.912 112.019 155.021 111.83 155.133 111.635C158.357 106.018 160.485 99.8435 162.11 93.585C162.36 92.645 162.63 91.7103 162.895 90.7746Z" fill="#9EC6FB"/>
<path d="M48.9961 40.6627C50.5327 41.8967 51.3022 43.5353 52.1995 45.2664C52.4864 45.8159 52.7747 46.3647 53.0647 46.9126C53.1902 47.1543 53.3156 47.3961 53.4449 47.6451C53.7523 48.2559 53.7523 48.2559 54.3913 48.5116C54.4423 48.3365 54.4933 48.1613 54.5458 47.9809C55.1071 46.1589 55.7306 44.7476 57.0889 43.3796C58.3087 43.1885 58.7563 43.2841 59.7678 44.0211C60.386 44.889 60.386 44.889 60.3708 45.6496C59.8807 47.4594 58.9641 49.08 58.1134 50.742C57.9785 51.015 57.8437 51.288 57.7048 51.5693C57.5169 51.9385 57.5169 51.9385 57.3253 52.3152C56.9512 53.4618 57.221 54.2084 57.7413 55.2658C57.8888 55.5134 58.0363 55.761 58.1883 56.0161C58.4384 56.4407 58.4384 56.4407 58.6935 56.874C58.8749 57.1777 59.0563 57.4814 59.2432 57.7943C59.629 58.4496 60.0142 59.1053 60.3989 59.7613C60.5964 60.0981 60.794 60.4349 60.9976 60.7819C61.9157 62.3643 62.7998 63.9653 63.6831 65.5677C65.3154 68.5251 66.9914 71.4537 68.6989 74.3676C68.8666 74.6546 69.0343 74.9416 69.2071 75.2373C69.3562 75.4912 69.5053 75.7451 69.6589 76.0067C69.9775 76.5863 69.9775 76.5863 69.9775 76.8882C69.1641 76.9621 68.3573 77.0154 67.5421 77.058C67.3142 77.0807 67.0862 77.1035 66.8513 77.127C66.1175 77.1556 65.5799 77.1232 64.882 76.8882C63.5503 75.6463 62.9807 73.9444 62.3694 72.2656C61.5341 70.11 60.7316 68.0893 58.8873 66.6243C56.0985 65.6106 52.665 65.9969 49.7706 66.3126C48.7263 66.4059 48.2227 66.4154 47.3623 65.7792C46.8979 65.1149 46.8979 65.1149 46.7293 64.2281C46.9027 63.2774 47.1316 62.7804 47.8281 62.1139C49.1378 61.3775 50.7763 61.5564 52.237 61.549C52.7629 61.5376 52.7629 61.5376 53.2995 61.526C54.1631 61.5082 55.0262 61.4972 55.89 61.4923C53.5064 57.1316 51.1007 52.7889 48.5937 48.4986C48.1266 47.699 47.6616 46.8981 47.1977 46.0965C47.0486 45.8419 46.8996 45.5872 46.746 45.3249C46.6084 45.0845 46.4707 44.8442 46.3289 44.5966C46.2071 44.3859 46.0852 44.1751 45.9597 43.958C45.699 43.3796 45.699 43.3796 45.699 42.3608C46.3601 40.613 47.149 40.4061 48.9961 40.6627Z" fill="#64AA91"/>
<path d="M152.498 121.434C153.045 121.448 153.045 121.448 153.604 121.463C154.504 121.488 155.402 121.523 156.301 121.566C155.669 122.654 155.015 123.563 154.165 124.491C153.095 125.664 153.095 125.664 152.044 126.855C147.636 131.925 142.055 136.209 136.261 139.573C135.581 139.927 135.581 139.927 135.32 140.585C135.288 141.027 135.273 141.47 135.267 141.914C135.097 149.182 135.097 149.182 132.28 152.141C130.291 153.993 128.523 154.857 125.749 154.832C125.363 154.83 124.976 154.828 124.578 154.826C124.175 154.821 123.771 154.816 123.368 154.811C122.957 154.808 122.547 154.805 122.136 154.802C121.135 154.795 120.135 154.785 119.134 154.773C119.134 154.673 119.134 154.574 119.134 154.471C119.635 154.378 119.635 154.378 120.146 154.282C122.731 153.613 124.588 152.305 125.981 150.017C126.642 148.724 127 147.68 127.02 146.216C127.027 145.915 127.035 145.613 127.042 145.303C127.053 144.673 127.062 144.043 127.07 143.413C127.149 140.44 127.149 140.44 128.126 139.377C128.839 138.876 129.53 138.434 130.28 138C133.898 135.81 137.227 133.297 140.304 130.387C140.919 129.807 141.548 129.26 142.195 128.717C143.29 127.757 144.279 126.711 145.267 125.642C145.417 125.48 145.566 125.319 145.721 125.153C145.866 124.994 146.011 124.834 146.16 124.67C146.306 124.511 146.452 124.351 146.603 124.187C147.028 123.69 147.028 123.69 147.311 123.091C148.446 120.937 150.311 121.326 152.498 121.434Z" fill="#61A2F9"/>
<path d="M162.595 76.5863C163.919 76.5512 165.243 76.5298 166.567 76.5108C167.131 76.4956 167.131 76.4956 167.706 76.4801C168.067 76.4763 168.429 76.4724 168.801 76.4684C169.134 76.462 169.466 76.4557 169.809 76.4492C170.688 76.5863 170.688 76.5863 171.4 77.1125C171.958 77.8925 172.023 78.2066 171.97 79.1522C171.958 79.4174 171.945 79.6825 171.932 79.9557C171.911 80.2384 171.89 80.5212 171.868 80.8126C171.851 81.1037 171.834 81.3949 171.816 81.6949C171.264 89.8931 171.264 89.8931 170.388 90.7746C169.833 90.801 169.276 90.8069 168.72 90.8041C168.383 90.8031 168.046 90.8021 167.698 90.8011C167.344 90.7986 166.989 90.7961 166.623 90.7934C166.267 90.7921 165.911 90.7907 165.544 90.7893C164.661 90.7857 163.778 90.7808 162.895 90.7746C162.988 89.8689 163.082 88.9633 163.176 88.0577C163.202 87.8043 163.228 87.551 163.255 87.29C163.376 86.1273 163.502 84.9674 163.659 83.809C163.806 82.5213 163.871 81.2584 163.888 79.9635C163.897 79.7373 163.905 79.511 163.914 79.2778C163.937 78.5384 163.937 78.5384 163.794 77.4919C163.21 76.9645 163.21 76.9645 162.595 76.5863Z" fill="#61A2F9"/>
<path d="M53.8586 100.653C55.5847 101.455 56.6425 102.589 57.3886 104.359C57.6328 106.201 57.5572 107.954 56.6007 109.574C55.5646 110.888 54.4989 111.488 52.854 111.759C50.8373 111.865 49.4783 111.666 47.9528 110.292C46.5823 108.791 46.168 107.336 46.1943 105.312C46.4448 103.747 47.4414 102.578 48.5652 101.529C50.2874 100.373 51.8346 99.9901 53.8586 100.653Z" fill="#81B4FB"/>
<path d="M101.795 100.61C103.543 101.35 104.624 102.605 105.346 104.359C105.601 105.892 105.498 107.203 105.028 108.68C104.084 109.998 102.996 111.085 101.45 111.604C99.6469 111.817 98.0333 111.921 96.504 110.831C95.0005 109.477 94.2092 108.243 94.0874 106.189C94.1727 104.173 95.0865 102.87 96.5227 101.529C98.2619 100.361 99.7427 100.051 101.795 100.61Z" fill="#81B4FB"/>
<path d="M149.107 100.435C150.766 101.122 152.354 102.054 153.139 103.739C153.582 105.406 153.505 107.047 152.985 108.68C152.041 109.998 150.954 111.085 149.407 111.604C147.739 111.752 146.288 111.836 144.761 111.095C143.159 109.602 142.213 108.282 142.101 106.057C142.145 104.399 142.697 103.274 143.85 102.103C145.507 100.651 146.928 100.049 149.107 100.435Z" fill="#80B4FB"/>
<path d="M78.9227 101.206C80.1253 102.018 80.831 103.013 81.3674 104.359C81.6205 105.893 81.5194 107.203 81.0489 108.68C80.1834 109.889 79.1037 110.933 77.7706 111.604C75.8945 111.816 74.1011 111.972 72.5065 110.831C71.0199 109.473 70.2298 108.233 70.1086 106.189C70.1938 104.177 71.1094 102.884 72.5252 101.529C74.6658 100.128 76.6351 100.078 78.9227 101.206Z" fill="#81B4FB"/>
<path d="M126.215 100.869C127.773 101.646 128.68 102.74 129.325 104.359C129.578 105.893 129.477 107.203 129.006 108.68C128.063 109.998 126.975 111.085 125.428 111.604C123.636 111.815 122.012 111.92 120.483 110.85C118.994 109.516 118.2 108.03 118.066 106.019C118.158 104.112 119.148 102.792 120.501 101.529C120.863 101.286 120.863 101.286 121.232 101.038C121.411 100.914 121.591 100.789 121.775 100.661C123.313 100.13 124.723 100.314 126.215 100.869Z" fill="#80B4FB"/>
</svg>
