<svg width="139" height="126" viewBox="0 0 139 126" fill="none" xmlns="http://www.w3.org/2000/svg">
<path d="M79.1258 58.3773C79.1258 58.3773 77.2485 55.7693 76.2875 52.6004C74.6078 47.0414 74.2663 37.8199 80.1763 28.7553C89.4491 14.5293 110.531 8.22516 110.531 8.22516C110.531 8.22516 113.335 30.648 103.686 45.2627C94.8079 58.7126 82.2136 58.5298 79.1258 58.3773Z" fill="#008A7E"/>
<path opacity="0.54" d="M78.4931 56.5114C78.4931 56.5114 72.5427 47.9335 78.4541 33.2786C84.3711 18.6233 105.91 10.7373 106.973 10.5623C108.039 10.3852 106.864 17.9116 102.33 27.6337C97.7914 37.3596 81.5617 62.5728 78.4931 56.5114Z" fill="#008A7E"/>
<path opacity="0.54" d="M106.338 10.7569C102.624 12.0175 83.9087 19.7592 78.4543 33.2802C75.3998 40.8489 75.5181 46.7817 76.3371 50.7651C76.5782 50.7061 80.8537 50.2004 83.0094 42.5314C84.3044 37.9357 87.2802 31.0922 90.5919 27.5138C95.1196 22.6152 99.262 20.1137 104.763 17.1335C106.555 15.6059 108.363 9.78571 106.338 10.7569Z" fill="#008A7E"/>
<path d="M124.012 97.8385C124.012 97.8385 122.95 95.7807 121.228 94.1296C118.207 91.2376 112.395 88.0071 104.644 88.8476C92.4848 90.1642 81.56 101.646 81.56 101.646C81.56 101.646 95.0431 110.76 107.574 109.332C119.115 108.016 123.103 99.8702 124.012 97.8385Z" fill="#008A7E"/>
<path opacity="0.54" d="M123.022 96.821C123.022 96.821 119.453 90.2021 108.112 89.219C96.7708 88.2377 84.6801 99.4989 84.2197 100.127C83.7643 100.749 88.9774 102.453 96.7009 102.709C104.425 102.972 125.912 100.772 123.022 96.821Z" fill="#008A7E"/>
<path opacity="0.54" d="M84.5546 99.7788C86.574 97.8031 97.6497 88.3119 108.11 89.2189C113.969 89.7256 117.74 91.739 120.033 93.5621C119.916 93.6983 118.199 96.2769 112.571 95.1586C109.191 94.4915 103.829 94.1725 100.449 95.1306C95.8281 96.4402 92.87 98.2873 89.1612 100.846C87.5979 101.503 83.2683 100.766 84.5546 99.7788Z" fill="#008A7E"/>
<path d="M66.7522 55.8078C66.7522 55.8078 64.0444 54.1963 60.8726 53.5249C55.298 52.3525 46.2594 52.802 37.908 59.3437C24.803 69.6068 20.4319 90.7329 20.4319 90.7329C20.4319 90.7329 42.5724 91.5674 56.026 80.912C68.4143 71.0992 67.1639 58.8124 66.7522 55.8078Z" fill="#008A7E"/>
<path opacity="0.54" d="M64.8778 55.3455C64.8778 55.3455 55.9967 50.2618 42.1819 57.2836C28.3669 64.3037 22.4914 86.0139 22.4119 87.0674C22.3305 88.1192 29.5823 86.3348 38.6943 81.0776C47.8067 75.8276 71.0607 57.834 64.8778 55.3455Z" fill="#008A7E"/>
<path opacity="0.54" d="M22.5468 86.4239C23.4634 82.6905 29.4385 63.7562 42.182 57.2836C49.3178 53.6565 55.1208 53.2689 59.0812 53.7338C59.0437 53.9702 58.9146 58.1902 51.6033 60.9452C47.2252 62.5965 40.7937 66.0897 37.5789 69.6238C33.1779 74.4617 31.0886 78.7182 28.6428 84.3489C27.303 86.2303 21.7718 88.4851 22.5468 86.4239Z" fill="#008A7E"/>
<path d="M114.302 85.2281C114.302 85.2281 111.776 83.3437 109.949 80.6655C106.735 75.9629 103.697 67.4399 106.555 57.2211C111.036 41.1884 128.889 29.0762 128.889 29.0762C128.889 29.0762 138.119 49.2179 133.407 65.7224C129.065 80.9226 117.238 84.4617 114.302 85.2281Z" fill="#008A7E"/>
<path opacity="0.54" d="M113.161 83.6685C113.161 83.6685 105.067 77.4043 106.279 61.9581C107.487 46.5086 125.305 32.7861 126.252 32.3083C127.194 31.8309 128.314 39.2159 126.938 49.6428C125.565 60.0732 117.819 88.4366 113.161 83.6685Z" fill="#008A7E"/>
<path opacity="0.54" d="M125.712 32.6803C122.61 34.9519 107.396 47.708 106.28 61.96C105.655 69.9392 107.513 75.4486 109.453 78.934C109.659 78.8066 113.51 77.0783 113.263 69.2692C113.115 64.5881 113.887 57.316 115.925 52.9938C118.717 47.078 121.852 43.5182 126.118 39.1098C127.347 37.1466 127.317 31.1755 125.712 32.6803Z" fill="#008A7E"/>
<path d="M76.5689 57.9096C76.5689 57.9096 73.7265 57.1138 71.2238 55.3911C66.8272 52.3603 61.2973 45.9321 60.3484 36.0331C58.8601 20.5093 70.3854 3.89724 70.3854 3.89724C70.3854 3.89724 85.2503 18.3929 86.6961 34.4146C88.0244 49.1668 78.8715 56.2495 76.5689 57.9096Z" fill="#008A7E"/>
<path opacity="0.54" d="M75.0465 56.9353C75.0465 56.9353 65.8575 54.1838 61.7061 40.2706C57.5545 26.3538 68.5029 8.3512 69.1684 7.6121C69.8361 6.87831 73.3032 12.9578 75.6156 22.5375C77.9318 32.1187 80.7264 59.5266 75.0465 56.9353Z" fill="#008A7E"/>
<path opacity="0.54" d="M68.8218 8.11821C66.8754 11.1503 57.8778 27.4374 61.7063 40.2721C63.851 47.4574 67.3334 51.6513 70.2054 54.0432C70.3427 53.8639 73.1248 51.0522 70.2774 44.3091C68.5696 40.2683 66.791 33.6455 67.1147 29.1791C67.5616 23.0669 69.1033 18.898 71.3475 13.6031C71.7609 11.4744 69.7204 6.25958 68.8218 8.11821Z" fill="#008A7E"/>
<path d="M39.6101 51.8685C39.6101 51.8685 37.5623 52.5491 35.3386 52.5227C31.4398 52.4801 25.4671 50.8398 20.8528 45.2291C13.6146 36.4235 13.8251 21.6544 13.8251 21.6544C13.8251 21.6544 28.7494 24.3763 36.1602 33.4974C42.9861 41.8959 40.329 49.9216 39.6101 51.8685Z" fill="#008A7E"/>
<path opacity="0.54" d="M38.2897 51.9006C38.2897 51.9006 31.5954 53.9795 23.4045 47.2391C15.21 40.4971 14.5015 25.1139 14.6025 24.3964C14.7073 23.6805 19.2892 25.9504 24.6011 30.8144C29.9132 35.6803 42.7909 51.152 38.2897 51.9006Z" fill="#008A7E"/>
<path opacity="0.54" d="M14.6006 24.8445C14.6548 27.4784 15.846 41.0223 23.4029 47.2391C27.6343 50.7213 31.4587 51.8406 34.1737 52.1186C34.1832 51.9547 34.7231 49.1105 30.2447 46.1902C27.5622 44.4337 23.7804 41.1459 22.1532 38.3079C19.9308 34.418 19.1633 31.2656 18.3659 27.1376C17.7487 25.6843 14.3837 23.3547 14.6006 24.8445Z" fill="#008A7E"/>
<path d="M133.35 117.934L138.583 117.599C134.793 109.761 116.054 74.0587 82.5984 58.8768C47.5515 42.9733 8.65056 56.1927 3.36002 58.1274C8.58038 56.2299 46.7173 43.5709 86.8236 63.2554C111.743 75.4844 127.42 104.941 133.35 117.934Z" fill="#008A7E"/>
</svg>
