<svg width="112" height="122" viewBox="0 0 112 122" fill="none" xmlns="http://www.w3.org/2000/svg">
<path d="M52.6437 60.3802C52.6437 60.3802 52.8045 58.2984 53.6607 56.324C55.1628 52.8561 58.8679 48.1354 65.6097 46.1179C76.1885 42.9505 89.304 48.6769 89.304 48.6769C89.304 48.6769 81.2755 60.9862 70.3452 64.1882C60.2885 67.1363 54.1133 61.7563 52.6437 60.3802Z" fill="#008A7E"/>
<path opacity="0.54" d="M53.1121 59.1883C53.1121 59.1883 53.764 52.4316 62.856 47.6378C71.9502 42.8512 85.9547 47.9827 86.5565 48.3448C87.1604 48.7034 83.4148 51.9461 77.0775 54.8682C70.741 57.7919 52.0899 63.489 53.1121 59.1883Z" fill="#008A7E"/>
<path opacity="0.54" d="M86.1568 48.1729C83.7866 47.2367 71.2427 43.2197 62.856 47.6382C58.1587 50.1136 55.7203 53.1076 54.4564 55.4313C54.6014 55.4993 56.9364 57.0465 61.228 54.1461C63.8012 52.4086 68.1524 50.2588 71.2988 49.8768C75.6061 49.3471 78.7107 49.8468 82.6958 50.6788C84.2273 50.6721 87.5728 48.5408 86.1568 48.1729Z" fill="#008A7E"/>
<path d="M58.3503 98.8291C58.3503 98.8291 58.6879 97.3616 58.5229 95.8183C58.24 93.1113 56.7076 89.0667 52.508 86.2289C45.9205 81.7721 35.673 82.8833 35.673 82.8833C35.673 82.8833 38.5378 93.0731 45.3566 97.6269C51.6398 101.824 57.0446 99.4549 58.3503 98.8291Z" fill="#008A7E"/>
<path opacity="0.54" d="M58.2804 97.9078C58.2804 97.9078 59.2921 93.1217 54.0751 87.8707C48.8587 82.6172 38.1223 83.1298 37.6321 83.2462C37.1403 83.3635 39.0149 86.3979 42.7409 89.7728C46.4645 93.1471 58.0583 101.084 58.2804 97.9078Z" fill="#008A7E"/>
<path opacity="0.54" d="M37.9429 83.2167C39.7765 83.0846 49.2627 83.0244 54.0755 87.8706C56.7702 90.5819 57.7976 93.1656 58.1685 95.0373C58.0535 95.0525 56.1185 95.6119 53.7909 92.6929C52.3946 90.9418 49.8706 88.5312 47.7888 87.589C44.9438 86.2958 42.6998 85.9701 39.7818 85.684C38.7316 85.3486 36.89 83.1623 37.9429 83.2167Z" fill="#008A7E"/>
<path d="M47.5813 53.9078C47.5813 53.9078 46.9154 51.9704 45.6183 50.3058C43.3407 47.3825 38.667 43.8072 31.7739 43.5445C20.957 43.1319 9.90701 51.7859 9.90701 51.7859C9.90701 51.7859 20.55 61.5011 31.7044 61.8661C41.9809 62.1956 46.5203 55.5701 47.5813 53.9078Z" fill="#008A7E"/>
<path opacity="0.54" d="M46.8413 52.8899C46.8413 52.8899 44.5682 46.6346 34.7625 44.3182C24.9541 41.997 12.9182 50.3072 12.4364 50.7946C11.9523 51.2854 16.306 53.4464 23.035 54.6649C29.7649 55.885 48.8663 56.7222 46.8413 52.8899Z" fill="#008A7E"/>
<path opacity="0.54" d="M12.7734 50.5353C14.7946 49.0661 25.7187 42.175 34.7643 44.3172C39.8258 45.5112 42.8743 47.7601 44.6463 49.6534C44.5284 49.7564 42.6925 51.7972 37.9013 50.0953C35.0376 49.0737 30.3759 48.1021 27.296 48.508C23.0764 49.0616 20.2522 50.2979 16.6717 52.0655C15.2163 52.437 11.5221 51.2321 12.7734 50.5353Z" fill="#008A7E"/>
<path d="M58.8239 88.4866C58.8239 88.4866 58.361 86.4906 58.5784 84.3944C58.9628 80.7086 61.0332 75.1983 66.7448 71.3276C75.706 65.2518 89.6547 66.7383 89.6547 66.7383C89.6547 66.7383 85.7762 80.6164 76.5025 86.8321C67.964 92.5518 60.6034 89.34 58.8239 88.4866Z" fill="#008A7E"/>
<path opacity="0.54" d="M58.9126 87.2352C58.9126 87.2352 57.5255 80.7293 64.6191 73.5685C71.7102 66.407 86.318 67.0791 86.9878 67.2393C87.6601 67.4001 85.1116 71.5345 80.0455 76.1343C74.9825 80.7323 59.2245 91.5614 58.9126 87.2352Z" fill="#008A7E"/>
<path opacity="0.54" d="M86.5664 67.1948C84.0731 67.02 71.1587 66.9622 64.6202 73.5673C60.9577 77.2652 59.562 80.7818 59.063 83.3273C59.218 83.3516 61.8583 84.1078 65.0149 80.1322C66.9108 77.7474 70.3489 74.4568 73.1791 73.1666C77.0489 71.4051 80.1007 70.955 84.0697 70.5572C85.5006 70.1014 87.9935 67.1214 86.5664 67.1948Z" fill="#008A7E"/>
<path d="M51.5706 59.0749C51.5706 59.0749 50.496 57.4851 49.9749 55.5759C49.0659 52.2229 49.0219 46.714 52.7084 41.4013C58.4908 33.0694 71.1923 29.6649 71.1923 29.6649C71.1923 29.6649 72.4824 43.1028 66.4684 51.6657C60.9294 59.5476 53.4134 59.2188 51.5706 59.0749Z" fill="#008A7E"/>
<path opacity="0.54" d="M51.2201 57.9516C51.2201 57.9516 47.819 52.7238 51.6014 44.0737C55.3857 35.4162 68.387 31.0832 69.0254 30.9973C69.6653 30.9104 68.8336 35.3848 65.9569 41.1133C63.0822 46.845 52.9558 61.6244 51.2201 57.9516Z" fill="#008A7E"/>
<path opacity="0.54" d="M68.6426 31.103C66.4039 31.7887 55.0925 36.0951 51.6016 44.0737C49.6442 48.5448 49.6152 52.0887 50.0364 54.4811C50.1795 54.4494 52.741 54.2227 54.1644 49.6794C55.0145 46.9524 56.9112 42.9203 58.948 40.839C61.7398 37.9919 64.2557 36.5675 67.5922 34.8847C68.6936 34.0011 69.8694 30.5572 68.6426 31.103Z" fill="#008A7E"/>
<path d="M35.7611 40.5482C35.7611 40.5482 34.4569 40.0242 33.3658 39.0806C31.4465 37.4189 29.1717 34.0971 29.2388 29.3692C29.3469 21.96 35.6548 14.7135 35.6548 14.7135C35.6548 14.7135 41.9197 22.3367 41.7674 29.9777C41.6264 37.0134 36.9351 39.8844 35.7611 40.5482Z" fill="#008A7E"/>
<path opacity="0.54" d="M35.0933 40.0091C35.0933 40.0091 30.8957 38.2309 29.6581 31.4439C28.4252 24.654 34.5333 16.7185 34.8883 16.4045C35.2402 16.0923 36.5602 19.1444 37.1544 23.7897C37.7505 28.438 37.639 41.5289 35.0933 40.0091Z" fill="#008A7E"/>
<path opacity="0.54" d="M34.6994 16.6264C33.6197 17.9573 28.5202 25.1835 29.6585 31.4451C30.2954 34.9498 31.7256 37.1116 32.9564 38.3888C33.0291 38.3124 34.4931 37.1312 33.4971 33.798C32.9006 31.7966 32.4066 28.5775 32.7898 26.4845C33.3237 23.6201 34.2653 21.7299 35.6055 19.3466C35.9083 18.366 35.217 15.7965 34.6994 16.6264Z" fill="#008A7E"/>
<path d="M56.7015 118.003C56.7015 118.003 65.6823 86.4135 54.1573 62.0875C42.6307 37.7625 14.7237 28.2794 14.7237 28.2794C14.7237 28.2794 41.8855 37.3778 54.4176 66.0408C63.8258 87.5631 55.6193 117.214 55.6193 117.214L56.7015 118.003Z" fill="#008A7E"/>
</svg>
