<svg xmlns="http://www.w3.org/2000/svg" viewBox="0 0 174.43 44.95"><defs><style>.cls-1{fill:#fff;}</style></defs><g id="Layer_2" data-name="Layer 2"><g id="Layer_1-2" data-name="Layer 1"><path class="cls-1" d="M0,.45H6.69L11,19.25,15.43.45h6.63V26.29H17.75V7.44L13,26.29H9L4.34,7.44V26.29H0Z"/><path class="cls-1" d="M36.16.17A9.1,9.1,0,0,1,43,3.1,11.66,11.66,0,0,1,45.4,7a17.89,17.89,0,0,1,1.2,6.53,16.59,16.59,0,0,1-2.06,8.39,9.11,9.11,0,0,1-8.41,5,8.89,8.89,0,0,1-6.69-2.76,12.09,12.09,0,0,1-2.53-4.05,18.28,18.28,0,0,1-1.19-6.68,17.71,17.71,0,0,1,.55-4.25,15.36,15.36,0,0,1,1.48-3.87,9.71,9.71,0,0,1,4.17-4.13A10,10,0,0,1,36.16.17Zm.05,4.9a4.94,4.94,0,0,0-4.08,2.16,10.06,10.06,0,0,0-1.7,6.19A10.82,10.82,0,0,0,32.13,20a4.78,4.78,0,0,0,4,2,4.93,4.93,0,0,0,4.06-2q1.7-2.22,1.7-6.47T40.39,7.21A5,5,0,0,0,36.21,5.07Z"/><path class="cls-1" d="M60.06.17A9.1,9.1,0,0,1,66.91,3.1,11.68,11.68,0,0,1,69.3,7a17.89,17.89,0,0,1,1.2,6.53,16.69,16.69,0,0,1-2.06,8.39,9.12,9.12,0,0,1-8.42,5,8.89,8.89,0,0,1-6.69-2.76,12.09,12.09,0,0,1-2.53-4.05,18.28,18.28,0,0,1-1.18-6.68,17.69,17.69,0,0,1,.54-4.25,15.75,15.75,0,0,1,1.48-3.87,9.71,9.71,0,0,1,4.17-4.13A10,10,0,0,1,60.06.17Zm0,4.9A4.94,4.94,0,0,0,56,7.23a10.13,10.13,0,0,0-1.7,6.19A10.89,10.89,0,0,0,56,20a4.8,4.8,0,0,0,4,2,4.92,4.92,0,0,0,4-2q1.69-2.22,1.7-6.47T64.29,7.21A5.05,5.05,0,0,0,60.11,5.07Z"/><path class="cls-1" d="M74.16.45H78.8l8.72,16.81V.45h4.63V26.29H87.52L78.8,9.92V26.29H74.16Z"/><path class="cls-1" d="M95.22,18.11h4.71a4.07,4.07,0,0,0,1.32,2.94,4.85,4.85,0,0,0,3.29,1q4.21,0,4.21-2.9c0-1.17-.86-2-2.59-2.57l-4-1.25a12.51,12.51,0,0,1-4.32-2,5.36,5.36,0,0,1-1.45-2.21A8.66,8.66,0,0,1,95.88,8a8.06,8.06,0,0,1,2-5.5C99.31.85,101.48,0,104.36,0q4,0,6.07,2.14c1.37,1.42,2.1,3.59,2.21,6.49H108a4.26,4.26,0,0,0-.84-2.71,3.7,3.7,0,0,0-2.93-1.21,4.11,4.11,0,0,0-2.64.8,2.57,2.57,0,0,0-1,2.1,2.31,2.31,0,0,0,.61,1.68,4.44,4.44,0,0,0,2,1l2.67.74a16.67,16.67,0,0,1,5.45,2.33,4.84,4.84,0,0,1,1.48,2.14,8.11,8.11,0,0,1,.56,3.05A8.68,8.68,0,0,1,112,23.32c-1.51,2.36-4,3.54-7.52,3.54A10.52,10.52,0,0,1,98.8,25.4Q95.41,23.3,95.22,18.11Z"/><path class="cls-1" d="M116.39.45h16V5.32H121v4.94h10v4.86H121v6.23h12v4.94H116.39Z"/><path class="cls-1" d="M136.31.45h16V5.32H141v4.94h10v4.86H141v6.23h12v4.94H136.31Z"/><path class="cls-1" d="M156.23.45h8a13.32,13.32,0,0,1,4.1.52,7.11,7.11,0,0,1,2.81,1.83q3.3,3.35,3.3,10.16a21.5,21.5,0,0,1-1.05,6.76,9,9,0,0,1-4.51,5.6,11.15,11.15,0,0,1-4.92,1h-7.72Zm4.65,4.91v16.1H164a4.61,4.61,0,0,0,3.81-1.72q1.78-2.23,1.78-6.51,0-7.87-5.62-7.87Z"/><path class="cls-1" d="M34.74,44.7H29.29v-.39a1.56,1.56,0,0,0,1-.31,1.13,1.13,0,0,0,.37-.91V34.63a1.15,1.15,0,0,0-.38-1,1.8,1.8,0,0,0-1.12-.31V33h5.42Q38,33,39.46,34.69a6,6,0,0,1,1.44,4.2,5.8,5.8,0,0,1-1.46,4.23Q38,44.67,34.74,44.7Zm-.23-11.19a1.06,1.06,0,0,0-.83.27,1.07,1.07,0,0,0-.22.74v8.74a.74.74,0,0,0,.29.67,1.46,1.46,0,0,0,.86.2,2.78,2.78,0,0,0,2.63-1.69A7.92,7.92,0,0,0,37.89,39a9.07,9.07,0,0,0-.62-3.73A2.83,2.83,0,0,0,34.51,33.51Z"/><path class="cls-1" d="M43,38a1,1,0,0,0-.18-.68.84.84,0,0,0-.66-.23v-.39h3.28v6.82a.85.85,0,0,0,.2.56.84.84,0,0,0,.65.24v.36h-4.2v-.36a.93.93,0,0,0,.68-.24.75.75,0,0,0,.23-.56Zm-.07-4a1.3,1.3,0,0,1,2.24-.82,1.33,1.33,0,0,1,.35.86,1.51,1.51,0,0,1-.26.88,1.23,1.23,0,0,1-1,.44,1.17,1.17,0,0,1-1-.47A1.52,1.52,0,0,1,42.92,34Z"/><path class="cls-1" d="M51.93,38.33a1.23,1.23,0,0,0-.32-.88,1.53,1.53,0,0,0-1.11-.38,1.8,1.8,0,0,0-.88.17.54.54,0,0,0-.27.47.72.72,0,0,0,.28.4.76.76,0,0,1,.25.57,1.07,1.07,0,0,1-.29.76,1.15,1.15,0,0,1-.87.32,1.28,1.28,0,0,1-.84-.26,1,1,0,0,1-.32-.78,1.92,1.92,0,0,1,.9-1.62,4.44,4.44,0,0,1,2.42-.59,4.49,4.49,0,0,1,2.61.61A2.12,2.12,0,0,1,54.35,39v4.4a1,1,0,0,0,0,.39c0,.08.14.11.31.1a.29.29,0,0,0,.18,0l.17-.15.23.31a2.23,2.23,0,0,1-.87.69,2.58,2.58,0,0,1-1.08.23,1.77,1.77,0,0,1-.92-.23,1.09,1.09,0,0,1-.48-.83,5.33,5.33,0,0,1-1.23.73,3.92,3.92,0,0,1-1.56.33,2,2,0,0,1-1.34-.44A1.77,1.77,0,0,1,47.25,43a2.28,2.28,0,0,1,1.31-1.93,13.24,13.24,0,0,1,3.37-1.27Zm-1.32,5.56a1.61,1.61,0,0,0,.73-.24,2.12,2.12,0,0,0,.59-.56V40.32a3.56,3.56,0,0,0-1.69.87,2.12,2.12,0,0,0-.51,1.47,1.65,1.65,0,0,0,.21.85A.74.74,0,0,0,50.61,43.89Z"/><path class="cls-1" d="M58.43,43.92,57,45h-.24V34.42a1.5,1.5,0,0,0-.18-.78.74.74,0,0,0-.69-.3V33h3.31v4.58a2.71,2.71,0,0,1,.87-.7,2.74,2.74,0,0,1,1.3-.32,2.68,2.68,0,0,1,2.24,1.22,5,5,0,0,1,.8,2.84,4.4,4.4,0,0,1-1.33,3.31,3.79,3.79,0,0,1-2.44,1,3.13,3.13,0,0,1-1.48-.35A2.42,2.42,0,0,1,58.43,43.92Zm.8-1.26a2.93,2.93,0,0,0,.15,1.1c.12.36.45.55,1,.58a1.26,1.26,0,0,0,1.21-.92A7.62,7.62,0,0,0,62,40.71a5.72,5.72,0,0,0-.39-2.48,1.23,1.23,0,0,0-1.17-.74,1.15,1.15,0,0,0-.83.37,1.13,1.13,0,0,0-.33.72Z"/><path class="cls-1" d="M72.34,42.81a4.45,4.45,0,0,1-1.25,1.44,3.65,3.65,0,0,1-2.14.66,3.11,3.11,0,0,1-2.62-1.34,4.68,4.68,0,0,1-.84-2.73,4.92,4.92,0,0,1,.93-3.05,3.35,3.35,0,0,1,2.73-1.28,2.86,2.86,0,0,1,2.36,1.11,4.52,4.52,0,0,1,.83,2.77H68a4.64,4.64,0,0,0,.45,2.23,1.94,1.94,0,0,0,1.82,1,1.67,1.67,0,0,0,.89-.3,3.35,3.35,0,0,0,.82-.82ZM68,39.76h2.27a8.31,8.31,0,0,0-.14-2,.89.89,0,0,0-.95-.75,1.07,1.07,0,0,0-1,1A7.53,7.53,0,0,0,68,39.76Z"/><path class="cls-1" d="M77.12,43.68a.89.89,0,0,0,.6-.28,2.85,2.85,0,0,0,.42-.59l.38.2a3.4,3.4,0,0,1-.89,1.3,2.51,2.51,0,0,1-1.63.6,2.09,2.09,0,0,1-1.46-.46,1.74,1.74,0,0,1-.5-1.36v-5.6h-.73V37c.49-.46,1-1,1.46-1.47a12.64,12.64,0,0,0,1.34-1.71h.38v2.93h1.65v.77H76.49v5.25a1.35,1.35,0,0,0,.13.68A.57.57,0,0,0,77.12,43.68Z"/><path class="cls-1" d="M80.06,38a1,1,0,0,0-.19-.68.84.84,0,0,0-.66-.23v-.39h3.28v6.82a.77.77,0,0,0,.85.8v.36h-4.2v-.36a.93.93,0,0,0,.68-.24.76.76,0,0,0,.24-.56ZM80,34a1.24,1.24,0,0,1,.34-.82,1.29,1.29,0,0,1,1.89,0,1.28,1.28,0,0,1,.35.86,1.51,1.51,0,0,1-.26.88,1.22,1.22,0,0,1-1,.44,1.17,1.17,0,0,1-1-.47A1.51,1.51,0,0,1,80,34Z"/><path class="cls-1" d="M89,43.74a2,2,0,0,0,1.08-.26,3.59,3.59,0,0,0,.74-.61l.31.32a4.14,4.14,0,0,1-1.36,1.24,4,4,0,0,1-2,.48,3.4,3.4,0,0,1-2.47-1.1,4.15,4.15,0,0,1-1.06-2.89,4.63,4.63,0,0,1,1.12-3.16,3.8,3.8,0,0,1,2.9-1.25,3.16,3.16,0,0,1,2,.59A1.55,1.55,0,0,1,91,38.29a1.17,1.17,0,0,1-.27.85,1.06,1.06,0,0,1-.78.27,1,1,0,0,1-.79-.31,1,1,0,0,1-.22-.7v-.81a.58.58,0,0,0-.16-.35.65.65,0,0,0-.48-.2,1.29,1.29,0,0,0-1.22.75,5.32,5.32,0,0,0-.38,2.32,5.15,5.15,0,0,0,.58,2.47A2,2,0,0,0,89,43.74Z"/><path class="cls-1" d="M107.33,42.42a5.75,5.75,0,0,1-1.77,1.68,6.17,6.17,0,0,1-3.19.85,5.87,5.87,0,0,1-5.9-5.89,6.54,6.54,0,0,1,1.66-4.58,5.85,5.85,0,0,1,4.38-1.81,5.38,5.38,0,0,1,2.1.39,3.48,3.48,0,0,0,1.15.38.77.77,0,0,0,.62-.23,1.27,1.27,0,0,0,.29-.54h.38v4h-.38a5.86,5.86,0,0,0-1.4-2.28,3.61,3.61,0,0,0-2.48-1.21A2.72,2.72,0,0,0,100.11,35a10.43,10.43,0,0,0-.61,4,7.3,7.3,0,0,0,.76,3.56A3,3,0,0,0,103,44.13a4.17,4.17,0,0,0,2.16-.64A7.1,7.1,0,0,0,106.88,42Z"/><path class="cls-1" d="M113.06,38.33a1.28,1.28,0,0,0-.33-.88,1.53,1.53,0,0,0-1.11-.38,1.75,1.75,0,0,0-.87.17.53.53,0,0,0-.28.47.78.78,0,0,0,.28.4.76.76,0,0,1,.25.57,1.07,1.07,0,0,1-.29.76,1.12,1.12,0,0,1-.87.32,1.25,1.25,0,0,1-.83-.26,1,1,0,0,1-.32-.78,1.88,1.88,0,0,1,.9-1.62,4.41,4.41,0,0,1,2.42-.59,4.49,4.49,0,0,1,2.61.61,2.11,2.11,0,0,1,.85,1.84v4.4a.91.91,0,0,0,0,.39c0,.08.14.11.3.1a.29.29,0,0,0,.18,0,.88.88,0,0,0,.17-.15l.24.31a2.3,2.3,0,0,1-.87.69,2.65,2.65,0,0,1-1.08.23,1.83,1.83,0,0,1-.93-.23,1.06,1.06,0,0,1-.47-.83,5.62,5.62,0,0,1-1.24.73,3.87,3.87,0,0,1-1.55.33,2,2,0,0,1-1.35-.44,1.84,1.84,0,0,1-.55-1.43,2.3,2.3,0,0,1,1.31-1.93,13.33,13.33,0,0,1,3.38-1.27Zm-1.32,5.56a1.54,1.54,0,0,0,.72-.24,2.16,2.16,0,0,0,.6-.56V40.32a3.56,3.56,0,0,0-1.69.87,2,2,0,0,0-.51,1.47,1.65,1.65,0,0,0,.2.85A.75.75,0,0,0,111.74,43.89Z"/><path class="cls-1" d="M120.6,40v3.36a.94.94,0,0,0,.3.79,1.59,1.59,0,0,0,1,.22v.36h-4.61v-.36a.88.88,0,0,0,.66-.21,1,1,0,0,0,.25-.8V38.06a1.12,1.12,0,0,0-.19-.73.81.81,0,0,0-.66-.22v-.39h3.22v1.54a4.08,4.08,0,0,1,1-1.21,2.24,2.24,0,0,1,1.41-.54,1.31,1.31,0,0,1,1,.41,1.44,1.44,0,0,1,.33,1,1,1,0,0,1-.3.8,1.08,1.08,0,0,1-.78.28c-.52,0-.83-.2-.93-.47a.69.69,0,0,0-.61-.47.93.93,0,0,0-.8.65A3.34,3.34,0,0,0,120.6,40Z"/><path class="cls-1" d="M131.57,42.81a4.54,4.54,0,0,1-1.24,1.44,3.71,3.71,0,0,1-2.15.66,3.11,3.11,0,0,1-2.62-1.34,4.68,4.68,0,0,1-.84-2.73,4.92,4.92,0,0,1,.93-3.05,3.36,3.36,0,0,1,2.74-1.28,2.85,2.85,0,0,1,2.35,1.11,4.45,4.45,0,0,1,.83,2.77H127.2a4.53,4.53,0,0,0,.46,2.23,1.91,1.91,0,0,0,1.81,1,1.67,1.67,0,0,0,.89-.3,3.35,3.35,0,0,0,.82-.82Zm-4.37-3.05h2.27a7.81,7.81,0,0,0-.14-2,.89.89,0,0,0-.94-.75,1.07,1.07,0,0,0-1,1A7.53,7.53,0,0,0,127.2,39.76Z"/></g></g></svg>