<svg xmlns="http://www.w3.org/2000/svg" viewBox="0 0 185.67 80.53"><defs><style>.cls-1{fill:#fff;}</style></defs><g id="Layer_2" data-name="Layer 2"><g id="Layer_1-2" data-name="Layer 1"><path class="cls-1" d="M47,19.84v1.93H43.3V58.65H34.07v-8a50,50,0,0,0-10.61-5.87,28.42,28.42,0,0,1-1.19,4.75,8.62,8.62,0,0,1-1.71,3A5.53,5.53,0,0,1,18,54a13.37,13.37,0,0,1-3.68.43,27.59,27.59,0,0,1-2.87-.15,15.12,15.12,0,0,1-2.71-.53,10.34,10.34,0,0,1-2.28-.94,3.48,3.48,0,0,1-1.44-1.37,11.06,11.06,0,0,1-.81-1.78,15.41,15.41,0,0,1-.62-2.18,22.52,22.52,0,0,1-.38-2.37q-.12-1.21-.12-2.28a13.36,13.36,0,0,1,.16-2.18,2,2,0,0,1,.65-1.38,10.43,10.43,0,0,1,4-2.21,18.43,18.43,0,0,1,4.28-.59l.78,0q.41,0,.84,0V21.77H0V19.84Zm-13,25.52V21.77h-10v17.6a8.51,8.51,0,0,1-.06,1,42.62,42.62,0,0,1,5,2.12Q31.5,43.74,34.07,45.36Z"/><path class="cls-1" d="M43.3,61.2q2.06.81,4.37,1.85c1.53.68,3.18,1.48,4.92,2.4v2.87A39.19,39.19,0,0,0,43.3,64v.25a17.57,17.57,0,0,1-.69,4.09,6.82,6.82,0,0,1-2.12,3.27,10.9,10.9,0,0,1-4.27,2.16,26.06,26.06,0,0,1-7,.78,18.08,18.08,0,0,1-4.59-.63,16.84,16.84,0,0,1-4.4-1.81,11.74,11.74,0,0,1-3.3-2.84,5.68,5.68,0,0,1-1.31-3.65A6.24,6.24,0,0,1,18.87,60c2.19-1.33,5.23-2,9.14-2l2.56.13a16.58,16.58,0,0,1,2.56.31l1,.19V55.53L43.3,58ZM29,71.5h.25a3.08,3.08,0,0,0,2.59-1.31,10.29,10.29,0,0,0,1.5-3,16,16,0,0,0,.68-3.3c.11-1.08.16-1.83.16-2.25-.59-.08-1.13-.14-1.63-.19s-1-.06-1.43-.06a7.58,7.58,0,0,0-2.87.47,4.19,4.19,0,0,0-1.78,1.34,5.15,5.15,0,0,0-.9,2.09,13,13,0,0,0-.25,2.65A4.11,4.11,0,0,0,26,70.53C26.52,71.18,27.49,71.5,29,71.5Z"/><path class="cls-1" d="M80.86,58.65H71.69V41a39.58,39.58,0,0,0-5.24-3.28q-2.82-1.45-6.93-3.21v6.74a11.24,11.24,0,0,1,2.71.56A7.28,7.28,0,0,1,64.48,43,6,6,0,0,1,66,44.86a5.05,5.05,0,0,1,.56,2.37A8.08,8.08,0,0,1,66,50.38,7,7,0,0,1,64,53a10,10,0,0,1-3.37,1.78,16,16,0,0,1-4.83.65,15.61,15.61,0,0,1-2.41-.18,5.77,5.77,0,0,1-2-.69A3.74,3.74,0,0,1,50,53.19a4.1,4.1,0,0,1-.5-2.15V29.64a9.58,9.58,0,0,1,5-1.25A16.19,16.19,0,0,1,58.8,29a38,38,0,0,1,4.68,1.66q2.34,1,4.49,2.15c1.44.77,2.68,1.46,3.72,2.09V21.77H45.79V19.84H84.6v1.93H80.86Z"/><path class="cls-1" d="M100,19.84v1.93H96.27V58.65H87.09V21.77H83.35V19.84h4a12.63,12.63,0,0,1-3-7.86A9.06,9.06,0,0,1,86,6.52a12.28,12.28,0,0,1,4.43-3.71A23,23,0,0,1,96.86.69,41,41,0,0,1,104.5,0c1.79,0,3.54.08,5.24.25s3.33.37,4.87.62,3,.54,4.3.88a31,31,0,0,1,3.5,1.06,34.23,34.23,0,0,1,10,6.3l-4,.19c-1.21-.92-2.36-1.72-3.46-2.41a19.13,19.13,0,0,0-3.47-1.68,21.15,21.15,0,0,0-4-1,37.51,37.51,0,0,0-5-.4,28.13,28.13,0,0,0-6.15.71,22.55,22.55,0,0,0-5.73,2.12,14.06,14.06,0,0,0-4.25,3.44,7.15,7.15,0,0,0-1.65,4.64,11.3,11.3,0,0,0,1.37,5.12Z"/><path class="cls-1" d="M144,19.84v1.93h-3.74V58.65h-9.17V51.78A21.25,21.25,0,0,0,130,47a28.76,28.76,0,0,0-2.12-4.43,26.18,26.18,0,0,1-1.44,4.71,11.83,11.83,0,0,1-2.74,4A12.86,12.86,0,0,1,119,54.12a22.19,22.19,0,0,1-7.3,1c-1.42,0-2.92-.07-4.5-.22s-3.34-.38-5.3-.71v-3a8.41,8.41,0,0,0,5.37-5.33,31.82,31.82,0,0,0,1.49-10.83,51.49,51.49,0,0,0-.49-7.11,24.58,24.58,0,0,0-1.63-6.18H98.76V19.84h7q-.37-.75-.84-1.59c-.31-.56-.64-1.13-1-1.72l3.31-2.24a29,29,0,0,1,6.43,5.55ZM131.08,37.75v-16h-16a14.69,14.69,0,0,1,1.46,3.09,27.86,27.86,0,0,1,1,3.53,29.71,29.71,0,0,1,.53,3.65c.1,1.22.16,2.36.16,3.4a31.39,31.39,0,0,1-.38,5.08,24.44,24.44,0,0,1-1,4.15,18.56,18.56,0,0,1-1.59,3.46,32.53,32.53,0,0,1-2.06,3.09,7.49,7.49,0,0,0,4.25-1.93,10.81,10.81,0,0,0,2.52-3.78,19.15,19.15,0,0,0,1.25-4.89,42.56,42.56,0,0,0,.34-5.43l3.81-2A22.74,22.74,0,0,1,131.08,37.75Z"/><path class="cls-1" d="M185.67,19.84v1.93H165.83l-.19,13.11c0,.83.42,1.26,1.13,1.31H167a3.82,3.82,0,0,0,2.56-1.38,7.2,7.2,0,0,0,1.75-4.3l10.36,3.18.12.69a14.87,14.87,0,0,1,.34,1.81c.11.74.21,1.61.31,2.59a27.44,27.44,0,0,1,.16,3.08,23.79,23.79,0,0,1-.72,5.93,11.77,11.77,0,0,1-2.62,5,12.94,12.94,0,0,1-5.3,3.43,25.12,25.12,0,0,1-8.77,1.28q-9.1,0-19.27-7.92V45.05A29.47,29.47,0,0,0,149,47.39a27.1,27.1,0,0,0,3.71,2,23.19,23.19,0,0,0,4.18,1.47,18.71,18.71,0,0,0,4.58.56,13.62,13.62,0,0,0,4.25-.62,7.76,7.76,0,0,0,3.18-2,9.22,9.22,0,0,0,2-3.62,18.68,18.68,0,0,0,.71-5.55v-.62a3.36,3.36,0,0,0-.06-.63v-.12q-3.18,1.24-5.55,1.93l-2.06.31h-.13a1.36,1.36,0,0,1-.5.07h-1.06a.59.59,0,0,1-.31-.07l-1.87-.18c-3.37-.5-5.05-2.69-5.05-6.55v-.63l.18-11.42H142.75V19.84Z"/><path class="cls-1" d="M64,69.45V72.6a2.13,2.13,0,0,0,.9-.52,2.87,2.87,0,0,0,.72-.81,3.91,3.91,0,0,1,.53-.62A2.88,2.88,0,0,1,67.49,72,4,4,0,0,1,68,73.93a3.68,3.68,0,0,1-1,2.81,3.51,3.51,0,0,1-2.8.84,3.11,3.11,0,0,1-2.1-1,10.12,10.12,0,0,1-1.28-2,12.9,12.9,0,0,1-.93-3.44s-.05-.61-.16-1.72l.93.51a9.5,9.5,0,0,0,.64,2.79,5,5,0,0,0,1.49,2.33,2.38,2.38,0,0,0,1.7.57,2.5,2.5,0,0,0,2.2-1.13,1.78,1.78,0,0,0,.33-1,1.44,1.44,0,0,0-.29-.83,3.27,3.27,0,0,1-.62.68,3.08,3.08,0,0,1-1.91,1c-.69,0-1.16-.44-1.44-1.33,0-.14,0-1.34,0-3.59H59.24L58,68.18H68.77L70,69.45Z"/><path class="cls-1" d="M70.15,69.14c-.07-.85-.11-1.78-.11-2.8l.71.58a4.22,4.22,0,0,0,.25,1,2.59,2.59,0,0,0,.2.28h1.35l1.26,1.27H71.28v9.86L70,78V71.07a1.41,1.41,0,0,0-.22-.85,1.56,1.56,0,0,0-1.31-.77h-.29l-1.28-1.24a7.85,7.85,0,0,1,1.86,0A1.77,1.77,0,0,1,70.15,69.14Z"/><path class="cls-1" d="M72.68,64.09a1.54,1.54,0,0,1,.71.19c-.43.26-.65.5-.65.71a.71.71,0,0,0,.34.56,1.08,1.08,0,0,0,.64.26,4.83,4.83,0,0,0,1.11-.06c.67-.07,1.08-.11,1.23-.11a4.68,4.68,0,0,1,2.38.42,2.34,2.34,0,0,1,1.22,2.12H81l1.28,1.27h-5.6a1.36,1.36,0,0,0,.11.2,2,2,0,0,0,.82.33,2.55,2.55,0,0,1,1.45,1.18,2.87,2.87,0,0,1,.5,1.83,2.69,2.69,0,0,1-1.91,2.31l-.64.27a11.17,11.17,0,0,1,2,1.32c.25.2.84.75,1.79,1.64l.47,2a14.08,14.08,0,0,0-7.41-4.6L72.48,73a5.76,5.76,0,0,0,3,1.05,3.72,3.72,0,0,0,1.69-.43A2.26,2.26,0,0,0,78,72.9a.63.63,0,0,0,.11-.35,1.8,1.8,0,0,0,0-.44,1,1,0,0,0-1-.85.83.83,0,0,0-.22,0,2.09,2.09,0,0,1-.8,1.3,1.63,1.63,0,0,1-1.09.4,1.4,1.4,0,0,1-.88-.3,1,1,0,0,1-.38-.8,1.66,1.66,0,0,1,.28-.89,1.72,1.72,0,0,1,.65-.64l1.06-.49a1.82,1.82,0,0,0-.4-.42H72.43l-1.28-1.27h6.44c.17,0,.35,0,.56-.08a1,1,0,0,0,.29-.17c.12-.09.18-.17.18-.23s-.15-.22-.47-.31a2.68,2.68,0,0,0-.86-.09c-.43,0-1,0-1.78.09-.3,0-.52,0-.66,0a3.71,3.71,0,0,1-2-.53,1.91,1.91,0,0,1-1-1.69,1.43,1.43,0,0,1,.33-.95A.6.6,0,0,1,72.68,64.09Z"/><path class="cls-1" d="M85.89,69.76a4.2,4.2,0,0,0-2.84,3.59,12.07,12.07,0,0,0-.11,1.37,3,3,0,0,0,1.4,2.66.88.88,0,0,0,.3,0h.13c0,.09-.08.19-.39.29.15,0,.22,0,.22-.09l-.21-.33a1.71,1.71,0,0,1-.24-.53,1.14,1.14,0,0,1,.67-1.24,1.29,1.29,0,0,1,.6-.16.82.82,0,0,1,.62.23,1.2,1.2,0,0,1,.66,1.15,1.53,1.53,0,0,1-.54,1.19,1.81,1.81,0,0,1-1.27.49,2.22,2.22,0,0,1-1.49-.48,5,5,0,0,1-1.75-4.12,7,7,0,0,1,1.64-4.37H80.85l-1.28-1.27H86.5l1.24,1.23A6,6,0,0,0,85.89,69.76Z"/><path class="cls-1" d="M93.33,69.45v9.82l-.82-1.18a5.15,5.15,0,0,0-4.61-3.57l-1.33-1.88A19,19,0,0,1,89,71.09a23.15,23.15,0,0,1,3.09-1.33v-.31H86.3L85,68.18h9.53l1.26,1.27ZM92.07,71.6a16.4,16.4,0,0,0-2.95,1.53,7.67,7.67,0,0,1,2.95,2.41Z"/><path class="cls-1" d="M102.32,66.35a5,5,0,0,0-3.08-1,3.81,3.81,0,0,0-2.08.75,6,6,0,0,0-.6.73c-.27.36-.4.6-.39.71l.31.66h1.64l1.28,1.27H96.85v9.48l-1.3-1.24V69.45H94.32l-1.26-1.27h2.37c-.16-.16-.32-.33-.47-.51a.88.88,0,0,1-.23-.59,1.9,1.9,0,0,1,.2-.85A6,6,0,0,1,95.86,65a5.19,5.19,0,0,1,1.28-.79A2.86,2.86,0,0,1,98.4,64a7.45,7.45,0,0,1,3.84,1.25,10.61,10.61,0,0,1,1.7,1.48l.4,1.18Z"/><path class="cls-1" d="M100,65.7h0a8.36,8.36,0,0,1,.85-.08,4.78,4.78,0,0,1,2.65.37,2.3,2.3,0,0,1,1.24,2.13h.91l1.25,1.33h-6.85v5.91c0,.31.18.47.53.47A2.27,2.27,0,0,0,102,75a3.58,3.58,0,0,0,1-1.5H103a1.34,1.34,0,0,1-1-.33,1.12,1.12,0,0,1-.39-.88,1.47,1.47,0,0,1,0-.36,1.31,1.31,0,0,1,1.38-1.06,1.53,1.53,0,0,1,1.27.63,2.07,2.07,0,0,1,.44,1.41,3.86,3.86,0,0,1-1,2.63c-1.16,1.21-2.09,1.82-2.77,1.82a2.08,2.08,0,0,1-2.09-1.75,6.81,6.81,0,0,1-.08-1.35V69.45H97.49l-1-1.27h7a1.62,1.62,0,0,1,0-.33c-.1-.49-.48-.69-1.13-.6-.45,0-1,0-1.81.09l-.65,0a3.72,3.72,0,0,1-2-.52,1.91,1.91,0,0,1-1-1.7,1.47,1.47,0,0,1,.31-.93.51.51,0,0,1,.49-.27A.29.29,0,0,1,98,64a1.76,1.76,0,0,1,.05.49.65.65,0,0,0-.22.4c0,.37.25.62.73.75A5.67,5.67,0,0,0,100,65.7Z"/><path class="cls-1" d="M112.21,69.45v.29a3,3,0,0,1,2.14,1,4,4,0,0,1,1.19,2.06,3.43,3.43,0,0,1,.1.8,2.13,2.13,0,0,1-.44,1.33,1.48,1.48,0,0,1-1.22.62,1.38,1.38,0,0,1-1-.38,1.2,1.2,0,0,1-.42-.91,1.41,1.41,0,0,1,.6-1.1,2.2,2.2,0,0,1,.62-.11,1.47,1.47,0,0,1,1,.48.21.21,0,0,1,.09.16c0,.14-.14.2-.47.2a1.16,1.16,0,0,0,.13-.34,2,2,0,0,0-.66-1.43,2.35,2.35,0,0,0-1.73-.73v7.55l-.67-.68a8.13,8.13,0,0,0-.41-1.07,4.65,4.65,0,0,0-.65-1,4.57,4.57,0,0,0-1.06-1,5.28,5.28,0,0,0-2.22-.78l-1.42-1.74A15.75,15.75,0,0,1,111,69.85v-.4h-5.44l-1.28-1.27h11.86l1.26,1.27Zm-3.08,2.92-.89.64A6.37,6.37,0,0,1,111,75.34V71.49A11.12,11.12,0,0,0,109.13,72.37Z"/><path class="cls-1" d="M124.37,77.32a1.71,1.71,0,0,1-.22-.58,1.29,1.29,0,0,1,.45-1.07,1.81,1.81,0,0,1,.93-.2,1,1,0,0,1,.81.39,1.28,1.28,0,0,1,.36.86,1.65,1.65,0,0,1-.52,1.24,1.72,1.72,0,0,1-1.25.51,2.28,2.28,0,0,1-1.51-.49,5.11,5.11,0,0,1-1.79-4.17,6.09,6.09,0,0,1,1.92-4.65,3.13,3.13,0,0,1,2.18-1L127,69.41a4.21,4.21,0,0,0-2.66,1.21,5.11,5.11,0,0,0-1.42,3.73,5.68,5.68,0,0,0,.2,1.26C123.33,76.57,123.76,77.14,124.37,77.32Z"/><path class="cls-1" d="M133,69.45v.29a3,3,0,0,1,2.14,1,4.1,4.1,0,0,1,1.19,2.06,4,4,0,0,1,.09.8,2.12,2.12,0,0,1-.43,1.33,1.49,1.49,0,0,1-1.22.62,1.38,1.38,0,0,1-.95-.38,1.2,1.2,0,0,1-.42-.91,1.41,1.41,0,0,1,.6-1.1,2.2,2.2,0,0,1,.62-.11,1.47,1.47,0,0,1,1,.48.21.21,0,0,1,.09.16c0,.14-.14.2-.47.2a1.16,1.16,0,0,0,.13-.34,2,2,0,0,0-.66-1.43,2.35,2.35,0,0,0-1.73-.73v7.55l-.68-.68a7.26,7.26,0,0,0-.4-1.07,4.65,4.65,0,0,0-.65-1,4.57,4.57,0,0,0-1.06-1,5.28,5.28,0,0,0-2.22-.78l-1.42-1.74a15.75,15.75,0,0,1,5.17-2.84v-.4h-5.44L125,68.18h11.86l1.26,1.27Zm-3.08,2.92L129,73a6.37,6.37,0,0,1,2.71,2.33V71.49A11.12,11.12,0,0,0,129.87,72.37Z"/><path class="cls-1" d="M143.81,69.45v9.7l-.71-.79a13.28,13.28,0,0,0-.62-1.2,5.19,5.19,0,0,0-.86-1,4.17,4.17,0,0,0-1.36-1,5.88,5.88,0,0,0-1.64-.25l-1.37-1.75c.71-.71,1.31-1.26,1.82-1.68l.84-.65a.61.61,0,0,0-.18-.17,7,7,0,0,0-1.59-.42,2.13,2.13,0,0,1-1.44-.82l-1.25-1.25h9.67l1.33,1.27ZM140,78.22a1.19,1.19,0,0,1-1.2-1.19,1.06,1.06,0,0,1,.32-.78,1,1,0,0,1,.77-.33,1.18,1.18,0,0,1,.86.35,1.1,1.1,0,0,1,.34.8,1.12,1.12,0,0,1-.32.8A1,1,0,0,1,140,78.22Zm2.5-8.77H140l.49.38c.09.1.55.62,1.36,1.57a8.86,8.86,0,0,1-1.07,1,12.12,12.12,0,0,0-1,1.08,6,6,0,0,1,2.79,2.16Z"/><path class="cls-1" d="M146.38,69.14c-.07-.85-.11-1.78-.11-2.8l.7.58a4.18,4.18,0,0,0,.26,1,2.59,2.59,0,0,0,.2.28h1.35L150,69.45h-2.53v9.86L146.27,78V71.07a1.41,1.41,0,0,0-.22-.85,1.56,1.56,0,0,0-1.31-.77h-.29l-1.28-1.24a7.85,7.85,0,0,1,1.86,0A1.79,1.79,0,0,1,146.38,69.14Z"/><path class="cls-1" d="M155.42,69.45v9.48l-.68-.64c-.59-1.08-.92-1.67-1-1.77a4.38,4.38,0,0,0-1.46-1.38,4.88,4.88,0,0,0-2.29-.71l-1.35-1.84a19.67,19.67,0,0,1,5.46-2.85v-.29h-5.45l-1.29-1.27h9.13l1.3,1.27Zm-3.65,8.49a1.1,1.1,0,0,1-.83-.35,1.17,1.17,0,0,1-.33-.81,1,1,0,0,1,.31-.76,1,1,0,0,1,.74-.32,1.21,1.21,0,0,1,1.13.9,1.07,1.07,0,0,1-.2.92A1,1,0,0,1,151.77,77.94Zm2.35-6.47a12.1,12.1,0,0,0-3,1.57,6.62,6.62,0,0,1,3,2.52Z"/></g></g></svg>