<svg width="200" height="216" viewBox="0 0 200 216" fill="none" xmlns="http://www.w3.org/2000/svg">
<path d="M16.0456 71.5C8.99461 84.7748 5 99.9209 5 116C5 168.467 47.5329 211 100 211C152.467 211 195 168.467 195 116C195 99.9209 191.005 84.7748 183.954 71.5M16.0456 71.5C16.6732 70.3183 17.3251 69.1514 18.0006 68L16.0456 71.5ZM183.954 71.5C183.327 70.3183 182.675 69.1514 181.999 68L183.954 71.5Z" stroke="#008A7E" stroke-width="10"/>
<path d="M46.5685 0.0858934C48.8351 0.0639325 51.1016 0.0474247 53.3682 0.0373722C54.4214 0.0325409 55.4744 0.0254863 56.5276 0.0152457C61.2208 -0.0292024 65.7328 -0.0166161 70.3239 1.02238C70.6091 1.08281 70.8943 1.14325 71.1882 1.20551C71.845 1.35365 72.4898 1.52008 73.137 1.70523C73.365 1.76991 73.593 1.8346 73.8279 1.90124C82.9869 4.62987 93.6649 10.8684 98.4591 19.3771C100.455 23.1419 101.448 26.8122 101.405 31.0874C101.403 31.4283 101.4 31.7693 101.397 32.1206C101.302 36.6757 99.8621 40.394 97.8301 44.4127C97.9445 44.5314 98.059 44.6501 98.1769 44.7725C102.052 48.9838 109.083 57.5547 109.083 63.4545C109.289 63.4545 109.495 63.4545 109.708 63.4545C109.734 63.2529 109.761 63.0513 109.788 62.8436C111.333 56.5198 115.96 50.5327 119.946 45.5413C120.305 45.0764 120.634 44.5891 120.96 44.1006C120.817 43.843 120.673 43.5855 120.526 43.3202C117.505 37.6413 116.49 31.4098 117.991 25.0783C119.628 19.9214 122.36 15.679 126.587 12.2602C126.836 12.0465 127.085 11.8328 127.342 11.6127C137.922 2.67011 149.983 -0.170845 163.587 0.00785319C164.429 0.0148637 165.271 0.0199154 166.113 0.0249245C168.15 0.0384997 170.186 0.0592439 172.222 0.0858934C172.251 2.32789 172.273 4.56984 172.287 6.812C172.293 7.854 172.303 8.89576 172.316 9.93771C172.4 16.4561 172.019 22.6232 169.858 28.8242C169.753 29.1316 169.647 29.439 169.539 29.7557C167.211 36.2715 163.555 41.9257 158.781 46.91C158.542 47.1728 158.302 47.4356 158.055 47.7063C154.179 51.8139 148.746 54.5797 143.044 54.8189C138.067 54.8975 133.939 54.4226 129.511 51.9582C128.772 51.5229 128.772 51.5229 127.837 51.5924C127.403 52.0107 127.403 52.0107 127.024 52.5887C126.872 52.8038 126.72 53.0189 126.564 53.2406C126.404 53.4757 126.244 53.7109 126.079 53.9532C125.912 54.1955 125.745 54.4379 125.573 54.6877C125.072 55.4214 124.578 56.1593 124.086 56.8992C123.888 57.1938 123.888 57.1938 123.687 57.4944C118.175 65.8139 115.752 75.5449 114.396 85.3058C114.617 85.3066 114.838 85.3074 115.065 85.3082C123.99 85.6442 132.47 90.4986 138.777 96.5436C139.056 96.8027 139.335 97.0619 139.623 97.3289C146.329 103.735 149.918 112.211 151.592 121.204C151.735 121.09 151.878 120.975 152.025 120.857C157.428 116.548 157.428 116.548 160.344 115.585C160.561 115.511 160.779 115.436 161.002 115.359C165.06 114.218 169.429 114.826 173.15 116.669C175.32 117.929 176.731 119.48 178.161 121.516C178.353 121.774 178.544 122.032 178.742 122.297C180.059 124.131 180.059 124.131 179.964 124.938C179.667 125.725 179.37 125.94 178.673 126.404C178.447 126.556 178.222 126.708 177.99 126.865C177.742 127.028 177.493 127.191 177.236 127.359C176.976 127.533 176.715 127.708 176.446 127.888C175.581 128.467 174.712 129.04 173.843 129.613C173.24 130.015 172.638 130.417 172.035 130.819C170.121 132.094 168.203 133.361 166.283 134.627C165.963 134.838 165.643 135.05 165.313 135.267C162.549 137.091 159.785 138.914 157.014 140.728C156.467 141.087 155.919 141.445 155.371 141.804C154.984 142.059 154.984 142.059 154.588 142.318C153.316 143.154 152.055 144.002 150.813 144.885C138.156 153.854 123.227 159.861 107.575 159.987C107.1 159.991 107.1 159.991 106.617 159.996C96.0659 160.077 86.2917 158.944 76.011 156.633C61.5997 153.393 47.3798 151.318 32.581 151.016C31.7871 150.999 30.9932 150.983 30.1993 150.965C29.7121 150.954 29.2249 150.944 28.7377 150.935C25.8205 150.869 22.9175 150.693 20 150.547C20 135.095 20 119.643 20 103.723C30.9853 103.569 30.9853 103.569 42.1925 103.411C44.3586 102.072 46.5248 100.733 48.7565 99.353C55.1061 95.9458 61.1949 93.7593 68.4131 95.812C70.8572 96.5718 73.4034 97.5664 75.546 98.9714C76.2184 99.4172 76.2184 99.4172 76.8705 99.2799C77.6224 99.0002 77.9635 98.6816 78.5069 98.0959C78.6917 97.9016 78.8766 97.7073 79.067 97.5071C79.2633 97.2986 79.4597 97.0901 79.6619 96.8753C85.5054 90.8873 94.3483 85.7409 102.889 85.268C103.391 85.267 103.893 85.284 104.394 85.3058C102.406 72.5949 98.6086 62.0417 90.9536 51.5924C89.7798 51.828 88.7591 52.3104 87.6716 52.8021C81.9491 55.2631 75.2809 55.7672 69.3862 53.4654C59.6494 49.3749 53.4547 39.9158 49.5572 30.4738C47.4342 25.0705 46.5128 19.2754 46.538 13.4991C46.5384 13.1146 46.5389 12.7301 46.5393 12.334C46.5411 11.1127 46.545 9.89154 46.549 8.67032C46.5507 7.83951 46.552 7.00871 46.5532 6.17791C46.5567 4.14723 46.5619 2.11656 46.5685 0.0858934Z" fill="#8EDB59"/>
<path d="M76.8879 99.6652C76.8879 99.8712 76.8879 100.077 76.8879 100.29C77.0982 100.364 77.3085 100.438 77.5252 100.514C78.6781 101.012 79.6975 101.647 80.7559 102.319C80.9735 102.455 81.1911 102.591 81.4153 102.732C82.534 103.438 83.6407 104.158 84.7339 104.902C84.9388 105.042 85.1438 105.181 85.3549 105.324C85.7407 105.588 86.1249 105.854 86.5072 106.123C89.2292 107.988 91.6344 108.226 94.872 108.212C95.5892 108.209 96.3061 108.213 97.0232 108.217C99.0606 108.23 101.098 108.23 103.135 108.23C104.387 108.23 105.638 108.236 106.889 108.245C107.587 108.248 108.285 108.245 108.983 108.241C114.819 108.256 120.317 110.07 124.711 114.025C124.991 114.275 125.27 114.525 125.559 114.783C127.687 116.792 129.345 118.887 130.65 121.516C130.65 121.825 130.65 122.135 130.65 122.453C127.484 123.7 124.312 124.807 121.019 125.672C120.736 125.748 120.454 125.823 120.162 125.901C115.979 126.966 111.891 127.244 107.598 127.213C107.349 127.212 107.1 127.211 106.843 127.21C98.3848 127.163 90.4878 125.666 82.5141 122.765C82.4311 123.164 82.3481 123.563 82.2626 123.973C81.9038 125.586 81.4221 127.145 80.9122 128.716C80.8256 128.986 80.739 129.256 80.6497 129.534C80.4388 130.192 80.2267 130.849 80.0136 131.506C95.5889 136.734 110.971 137.862 126.899 133.379C127.204 133.293 127.509 133.207 127.824 133.119C137.192 130.416 146.178 125.738 153.69 119.539C158.012 115.993 162.581 114.488 168.159 114.961C172.537 115.76 175.637 117.922 178.161 121.516C178.353 121.774 178.544 122.032 178.742 122.297C180.059 124.131 180.059 124.131 179.964 124.938C179.667 125.725 179.37 125.94 178.673 126.404C178.447 126.556 178.222 126.708 177.99 126.865C177.742 127.028 177.493 127.191 177.236 127.359C176.976 127.533 176.715 127.708 176.446 127.888C175.581 128.467 174.712 129.04 173.843 129.613C173.24 130.015 172.638 130.417 172.035 130.819C170.121 132.094 168.203 133.361 166.283 134.627C165.963 134.838 165.643 135.05 165.313 135.267C162.549 137.091 159.785 138.914 157.014 140.728C156.467 141.087 155.919 141.445 155.371 141.804C154.984 142.059 154.984 142.059 154.588 142.318C153.316 143.154 152.055 144.002 150.813 144.885C138.156 153.854 123.227 159.861 107.575 159.987C107.1 159.991 107.1 159.991 106.617 159.996C96.0659 160.077 86.2917 158.944 76.011 156.633C61.5997 153.393 47.3798 151.318 32.581 151.016C31.7871 150.999 30.9932 150.983 30.1993 150.965C29.7121 150.954 29.2249 150.944 28.7377 150.935C25.8205 150.869 22.9175 150.693 20 150.547C20 135.095 20 119.643 20 103.723C30.9853 103.569 30.9853 103.569 42.1925 103.411C44.3586 102.072 46.5248 100.733 48.7565 99.353C58.6594 94.039 67.181 93.976 76.8879 99.6652Z" fill="#F4BDBD"/>
<path d="M137.214 95.0803C137.738 95.5652 138.259 96.0531 138.777 96.5436C139.198 96.9335 139.198 96.9335 139.627 97.3313C145.645 103.088 150.378 111.586 151.28 119.956C151.325 120.261 151.37 120.566 151.416 120.881C151.28 121.829 151.28 121.829 150.452 122.585C150.068 122.834 149.68 123.076 149.287 123.311C148.971 123.51 148.971 123.51 148.649 123.713C147.969 124.135 147.282 124.544 146.591 124.95C146.371 125.081 146.15 125.211 145.923 125.346C144.294 126.3 142.639 127.198 140.965 128.072C140.716 128.202 140.467 128.333 140.211 128.467C125.811 135.914 108.435 138.694 92.5164 135.252C92.0141 135.144 92.0141 135.144 91.5016 135.034C83.3204 133.242 83.3204 133.242 80.0136 131.818C79.701 131.193 79.701 131.193 79.9238 130.349C80.0433 129.999 80.1627 129.649 80.2859 129.289C80.4138 128.911 80.5417 128.532 80.6735 128.143C80.8116 127.742 80.9498 127.341 81.088 126.94C81.2252 126.537 81.3622 126.134 81.4989 125.731C81.8352 124.741 82.1737 123.753 82.5141 122.765C85.2252 123.43 87.918 124.146 90.6056 124.9C99.2632 127.292 109.989 128.181 118.772 125.887C119.08 125.808 119.389 125.729 119.706 125.648C122.891 124.822 126.043 123.992 129.069 122.687C129.712 122.453 129.712 122.453 130.65 122.453C128.012 116.636 123.551 112.384 117.6 110.006C114.553 108.866 111.745 108.629 108.522 108.632C107.8 108.632 107.078 108.628 106.356 108.623C104.305 108.609 102.255 108.601 100.204 108.599C98.9441 108.597 97.6844 108.59 96.4246 108.579C95.9482 108.576 95.4718 108.575 94.9954 108.576C91.2419 108.589 88.5435 107.97 85.4408 105.85C85.2631 105.73 85.0854 105.61 84.9023 105.486C84.3453 105.109 83.791 104.729 83.237 104.348C82.5007 103.846 81.7634 103.345 81.0258 102.845C80.5167 102.5 80.5167 102.5 79.9972 102.148C78.9828 101.477 77.9586 100.866 76.8879 100.29C79.5342 94.466 87.6991 90.0206 93.3723 87.7767C108.253 82.3025 125.145 84.4753 137.214 95.0803Z" fill="#5B5555"/>
<path d="M46.5685 0.0858934C48.8351 0.0639325 51.1016 0.0474247 53.3682 0.0373722C54.4214 0.0325409 55.4744 0.0254863 56.5276 0.0152457C61.2208 -0.0292024 65.7328 -0.0166161 70.3239 1.02238C70.6091 1.08281 70.8943 1.14325 71.1882 1.20551C71.845 1.35365 72.4898 1.52008 73.137 1.70523C73.365 1.76991 73.593 1.8346 73.8279 1.90124C82.9869 4.62987 93.6649 10.8684 98.4591 19.3771C100.455 23.1419 101.448 26.8122 101.405 31.0874C101.403 31.4281 101.4 31.7689 101.397 32.1199C101.304 36.6122 99.974 40.1973 97.8301 44.1006C96.935 43.6948 96.2916 43.2659 95.5988 42.5716C95.413 42.3869 95.2272 42.2022 95.0357 42.0119C94.7356 41.7087 94.7356 41.7087 94.4294 41.3995C94.2158 41.1863 94.0022 40.9731 93.7821 40.7534C93.0771 40.0488 92.3743 39.3421 91.6715 38.6353C91.1829 38.1462 90.6941 37.6571 90.2052 37.1683C88.9192 35.8815 87.635 34.5929 86.3513 33.304C85.0408 31.9888 83.7286 30.6755 82.4165 29.3619C79.8425 26.7847 77.2706 24.2055 74.6999 21.625C74.348 21.9248 73.9963 22.2248 73.6447 22.5249C73.4488 22.6919 73.253 22.859 73.0512 23.0311C72.4819 23.5239 71.9393 24.0338 71.4093 24.5686C71.2331 24.7456 71.0568 24.9227 70.8752 25.1051C70.6997 25.283 70.5242 25.4608 70.3434 25.6441C70.0675 25.9217 70.0675 25.9217 69.786 26.205C69.3395 26.6546 68.8938 27.1052 68.4485 27.556C68.964 28.8857 69.96 29.7708 70.9561 30.7507C71.1488 30.9427 71.3415 31.1347 71.54 31.3326C72.1772 31.9668 72.8165 32.5989 73.4557 33.231C73.8997 33.6725 74.3436 34.1142 74.7873 34.556C75.9565 35.7195 77.1274 36.8812 78.2988 38.0424C80.1707 39.8985 82.0406 41.7566 83.9094 43.6157C84.5612 44.2635 85.2141 44.9102 85.8671 45.5568C86.2695 45.9566 86.6719 46.3564 87.0743 46.7562C87.2547 46.9343 87.4352 47.1124 87.6211 47.296C88.6969 48.3674 89.7118 49.4539 90.641 50.6559C90.641 50.862 90.641 51.068 90.641 51.2803C84.6415 54.5669 78.3098 55.8577 71.5351 54.2263C62.3234 51.2902 56.1891 43.7142 51.8516 35.4244C48.346 28.5439 46.5042 21.2321 46.538 13.4991C46.5384 13.1146 46.5389 12.7301 46.5393 12.334C46.5411 11.1127 46.545 9.89154 46.549 8.67032C46.5507 7.83951 46.552 7.00871 46.5532 6.17791C46.5567 4.14723 46.5619 2.11656 46.5685 0.0858934Z" fill="#C2EA21"/>
<path d="M174.879 117.756C176.207 118.842 177.18 120.12 178.161 121.516C178.353 121.774 178.544 122.032 178.742 122.297C180.059 124.131 180.059 124.131 179.964 124.938C179.667 125.725 179.37 125.94 178.673 126.404C178.447 126.556 178.222 126.708 177.99 126.865C177.742 127.028 177.493 127.191 177.236 127.359C176.976 127.533 176.715 127.708 176.446 127.888C175.581 128.467 174.712 129.04 173.843 129.613C173.24 130.015 172.638 130.417 172.035 130.819C170.121 132.094 168.203 133.361 166.283 134.627C165.803 134.944 165.803 134.944 165.313 135.267C162.549 137.091 159.785 138.914 157.014 140.728C156.467 141.087 155.919 141.445 155.371 141.804C155.113 141.974 154.854 142.143 154.588 142.318C153.316 143.154 152.055 144.002 150.813 144.885C138.377 153.698 124.611 158.899 109.395 159.912C109.395 152.186 109.395 144.46 109.395 136.5C113.109 135.985 116.822 135.47 120.648 134.939C131.843 132.497 142.888 128.094 151.905 120.892C157.359 116.6 157.359 116.6 160.344 115.585C160.562 115.51 160.779 115.435 161.004 115.357C165.755 114.028 170.847 115.017 174.879 117.756Z" fill="#E08F98"/>
<path d="M74.3873 21.3128C75.9317 22.6085 77.3944 23.9533 78.8251 25.3724C79.1451 25.6881 79.1451 25.6881 79.4715 26.0102C80.1716 26.7018 80.8705 27.3946 81.5691 28.0877C81.9309 28.4465 81.9309 28.4465 82.3 28.8126C83.5785 30.0811 84.8558 31.3507 86.1324 32.621C87.179 33.6622 88.2279 34.701 89.2788 35.7378C90.5577 36.9994 91.8325 38.2649 93.1047 39.5333C93.585 40.0109 94.0667 40.4873 94.5498 40.9621C98.721 45.0662 102.305 49.4765 105.136 54.6165C105.289 54.8877 105.441 55.1588 105.598 55.4382C109.083 61.7203 109.083 61.7203 109.083 63.4545C109.289 63.4545 109.495 63.4545 109.708 63.4545C109.734 63.2529 109.761 63.0513 109.788 62.8436C112.005 53.766 119.494 45.6705 125.929 39.3291C126.456 38.8051 126.982 38.2808 127.509 37.7562C128.879 36.393 130.252 35.0336 131.626 33.675C133.035 32.2813 134.44 30.884 135.845 29.4869C138.59 26.7587 141.339 24.0345 144.091 21.3128C144.442 21.612 144.793 21.9114 145.144 22.2109C145.339 22.3777 145.535 22.5444 145.736 22.7161C146.331 23.2312 146.896 23.7663 147.449 24.3247C147.64 24.5158 147.83 24.707 148.026 24.9039C148.312 25.193 148.312 25.193 148.603 25.488C148.802 25.688 149.001 25.888 149.206 26.094C149.689 26.5806 150.172 27.068 150.655 27.556C150.142 28.8741 149.162 29.7471 148.172 30.716C147.982 30.9045 147.791 31.093 147.595 31.2873C147.182 31.6964 146.769 32.1048 146.354 32.5126C145.695 33.1613 145.038 33.812 144.382 34.4634C142.515 36.3152 140.645 38.1631 138.773 40.0098C137.627 41.1406 136.484 42.2738 135.342 43.4084C134.909 43.8373 134.476 44.2652 134.041 44.6922C131.423 47.2646 129.045 49.859 126.899 52.8411C126.775 53.0133 126.651 53.1855 126.523 53.363C125.686 54.5258 124.875 55.7035 124.086 56.8992C123.972 57.0702 123.858 57.2412 123.741 57.4174C118.174 65.8768 115.916 75.4409 114.396 85.3058C111.096 85.3058 107.795 85.3058 104.394 85.3058C104.175 83.9473 103.956 82.5888 103.73 81.1892C101.978 70.8147 98.2151 61.7413 92.1257 53.1532C91.9731 52.935 91.8205 52.7167 91.6633 52.4919C90.6424 51.0775 89.5239 49.7725 88.3382 48.4944C88.0932 48.23 88.0932 48.23 87.8432 47.9602C85.9224 45.9007 83.9298 43.9144 81.933 41.9289C81.5318 41.5288 81.1307 41.1287 80.7297 40.7285C79.6883 39.6897 78.646 38.6518 77.6035 37.6141C76.5341 36.5494 75.4656 35.4837 74.3971 34.4181C72.3109 32.338 70.2237 30.2588 68.1359 28.1804C68.6416 27.1113 69.206 26.4145 70.0528 25.5807C70.4306 25.2064 70.4306 25.2064 70.8159 24.8246C71.079 24.5671 71.3422 24.3096 71.6132 24.0442C71.8788 23.7819 72.1443 23.5195 72.4179 23.2492C73.073 22.6023 73.7295 21.9569 74.3873 21.3128Z" fill="#5DC378"/>
<path d="M74.3873 21.3128C75.9317 22.6085 77.3944 23.9533 78.8251 25.3724C79.1451 25.6881 79.1451 25.6881 79.4715 26.0102C80.1716 26.7018 80.8705 27.3946 81.5691 28.0877C81.9309 28.4465 81.9309 28.4465 82.3 28.8126C83.5785 30.0811 84.8558 31.3507 86.1324 32.621C87.179 33.6622 88.2279 34.701 89.2788 35.7378C90.5577 36.9994 91.8325 38.2649 93.1047 39.5333C93.585 40.0109 94.0667 40.4873 94.5498 40.9621C98.7058 45.0513 102.276 49.4486 105.117 54.558C105.257 54.7982 105.396 55.0384 105.54 55.2859C105.839 55.8146 106.126 56.3505 106.403 56.8914C106.766 57.5888 107.143 58.2354 107.556 58.9006C110.2 63.5001 109.684 68.7026 109.567 73.8251C109.541 75.0871 109.53 76.3493 109.517 77.6115C109.491 80.0726 109.447 82.5329 109.395 84.9936C107.745 85.0967 106.094 85.1997 104.394 85.3058C104.303 84.7284 104.212 84.1509 104.118 83.556C102.29 72.2823 98.7689 62.5222 92.1257 53.1532C91.9731 52.935 91.8205 52.7167 91.6633 52.4919C90.6424 51.0775 89.5239 49.7725 88.3382 48.4944C88.0932 48.23 88.0932 48.23 87.8432 47.9602C85.9224 45.9007 83.9298 43.9144 81.933 41.9289C81.5318 41.5288 81.1307 41.1287 80.7297 40.7285C79.6883 39.6897 78.646 38.6518 77.6035 37.6141C76.5341 36.5494 75.4656 35.4837 74.3971 34.4181C72.3109 32.338 70.2237 30.2588 68.1359 28.1804C68.6416 27.1113 69.206 26.4145 70.0528 25.5807C70.4306 25.2064 70.4306 25.2064 70.8159 24.8246C71.079 24.5671 71.3422 24.3096 71.6132 24.0442C71.8788 23.7819 72.1443 23.5195 72.4179 23.2492C73.073 22.6023 73.7295 21.9569 74.3873 21.3128Z" fill="#8EDB59"/>
<path d="M109.395 84.9936C109.395 92.7196 109.395 100.446 109.395 108.406C106.365 108.431 103.335 108.457 100.213 108.484C99.2628 108.495 98.3122 108.506 97.3327 108.518C96.5714 108.522 95.8101 108.525 95.0487 108.528C94.4653 108.537 94.4653 108.537 93.8701 108.547C90.5329 108.548 88.1687 107.714 85.4408 105.85C85.2631 105.73 85.0854 105.61 84.9023 105.486C84.3453 105.109 83.791 104.729 83.237 104.348C82.5007 103.846 81.7634 103.345 81.0258 102.845C80.5167 102.5 80.5167 102.5 79.9972 102.148C78.9828 101.477 77.9586 100.866 76.8879 100.29C79.5342 94.466 87.6991 90.0206 93.3723 87.7767C98.7675 85.792 103.612 84.9936 109.395 84.9936Z" fill="#766E6E"/>
<path d="M109.395 108.406C115.197 108.406 120.35 110.1 124.711 114.025C124.991 114.275 125.27 114.525 125.559 114.783C127.687 116.792 129.345 118.887 130.65 121.516C130.65 121.825 130.65 122.135 130.65 122.453C123.715 125.184 116.887 127.135 109.395 127.135C109.395 120.955 109.395 114.774 109.395 108.406Z" fill="#E49CA4"/>
<path d="M82.5141 122.765C85.2252 123.43 87.918 124.146 90.6056 124.9C93.311 125.647 96.0153 126.225 98.8069 126.531C99.0377 126.556 99.2685 126.582 99.5063 126.608C102.793 126.947 106.095 127.022 109.395 127.135C109.395 130.226 109.395 133.316 109.395 136.5C99.5795 136.69 89.1618 135.758 80.0136 131.818C79.701 131.193 79.701 131.193 79.9238 130.349C80.0433 129.999 80.1627 129.649 80.2859 129.289C80.4138 128.911 80.5417 128.532 80.6735 128.143C80.8116 127.742 80.9498 127.341 81.088 126.94C81.2252 126.537 81.3622 126.134 81.4989 125.731C81.8352 124.741 82.1737 123.753 82.5141 122.765Z" fill="#776F6F"/>
</svg>
