<svg width="200" height="211" viewBox="0 0 200 211" fill="none" xmlns="http://www.w3.org/2000/svg">
<path d="M16.0456 66.5C8.99461 79.7748 5 94.9209 5 111C5 163.467 47.5329 206 100 206C152.467 206 195 163.467 195 111C195 94.9209 191.005 79.7748 183.954 66.5M16.0456 66.5C16.6732 65.3183 17.3251 64.1514 18.0006 63L16.0456 66.5ZM183.954 66.5C183.327 65.3183 182.675 64.1514 181.999 63L183.954 66.5Z" stroke="#008A7E" stroke-width="10"/>
<path d="M26.5803 61.6026C28.1167 62.4255 29.6013 63.2967 31.067 64.2394C39.0941 69.1713 47.6452 71.441 56.8139 73.159C70.9256 75.8077 82.8622 80.3436 91.4477 92.3868C93.3531 95.2009 94.8749 98.2331 96.2196 101.346C96.7478 100.556 97.1757 99.765 97.6032 98.9195C103.214 87.9657 113.621 81.6139 125.03 77.9225C129.381 76.5759 133.853 75.7926 138.324 74.9631C149.282 72.9187 159.893 69.7836 169.133 63.3222C170.055 62.6811 171.009 62.1385 171.995 61.6026C175.684 69.46 177.043 78.3811 176.999 86.9961C176.998 87.3424 176.998 87.3424 176.997 87.6957C176.981 91.7891 176.704 95.781 175.983 99.817C175.933 100.1 175.884 100.383 175.833 100.675C173.758 112.163 169.016 123.68 161.257 132.529C160.977 132.866 160.698 133.204 160.42 133.542C150.489 145.526 136.32 151.981 121.069 154.234C120.712 154.288 120.354 154.342 119.986 154.398C116.399 154.9 112.824 154.96 109.206 154.959C108.197 154.96 107.189 154.972 106.18 154.983C105.529 154.985 104.877 154.986 104.226 154.987C103.929 154.991 103.633 154.995 103.327 155C100.389 154.981 98.0011 154.113 95.8553 152.087C92.4146 148.348 91.5996 143.843 91.3111 138.949C91.1116 139.009 90.912 139.069 90.7064 139.131C88.5282 139.759 86.3921 140.134 84.1401 140.382C83.7915 140.42 83.4429 140.458 83.0838 140.498C69.3636 141.905 54.8738 138.983 43.9687 130.206C41.9594 128.536 40.0819 126.734 38.238 124.886C38.0692 124.723 37.9004 124.56 37.7264 124.392C29.3871 116.277 24.9516 104.597 22.8989 93.397C22.8378 93.0692 22.8378 93.0692 22.7755 92.7348C20.9769 82.5548 22.3735 71.445 26.2735 61.9083C26.3747 61.8074 26.476 61.7065 26.5803 61.6026Z" fill="#4EB96E"/>
<path d="M93.8891 4.30672C95.0709 5.22834 96.1799 6.22143 97.2936 7.22156C97.8009 7.6294 98.3104 8.03473 98.8254 8.4331C99.1541 8.08171 99.1541 8.08171 99.4895 7.72321C103.668 3.36185 108.975 0.341408 115.174 0.164066C115.883 0.159684 116.593 0.158565 117.303 0.160517C117.654 0.155636 118.005 0.150756 118.367 0.145727C121.717 0.143853 124.708 0.757294 127.68 2.29965C127.888 2.40478 128.096 2.5099 128.31 2.61822C129.966 3.47986 131.416 4.49559 132.831 5.70713C133.201 5.98356 133.201 5.98356 133.578 6.26557C137.768 9.75162 140.48 15.5354 141.103 20.8514C141.635 27.4253 140.605 33.7588 136.186 38.9452C133.997 41.4552 131.692 43.825 129.314 46.1589C128.736 46.7265 128.159 47.2951 127.582 47.8639C126.359 49.0704 125.134 50.2757 123.908 51.4808C122.485 52.8813 121.061 54.2823 119.639 55.6845C119.075 56.2408 118.509 56.7961 117.944 57.3514C116.389 58.8818 114.861 60.4162 113.436 62.0678C112.342 63.296 111.154 64.4369 109.982 65.5923C109.708 65.8638 109.434 66.1353 109.151 66.415C108.575 66.9842 108 67.5532 107.423 68.1216C106.684 68.8505 105.947 69.5807 105.209 70.3113C104.503 71.0107 103.796 71.7089 103.089 72.4072C102.824 72.6697 102.56 72.9322 102.287 73.2026C101.92 73.5638 101.92 73.5638 101.546 73.9322C101.33 74.1449 101.115 74.3575 100.893 74.5766C99.9917 75.4032 99.193 75.5323 97.9635 75.5107C97.1427 75.3396 96.8019 75.0596 96.1873 74.4995C95.8679 74.2093 95.8679 74.2094 95.542 73.9133C94.2104 72.6518 92.8985 71.3719 91.596 70.0811C91.2888 69.7776 90.9814 69.474 90.6741 69.1705C90.0338 68.5379 89.394 67.9048 88.7547 67.2712C87.9414 66.4655 87.1267 65.661 86.3117 64.857C85.6779 64.2316 85.0449 63.6054 84.4121 62.979C84.1123 62.6823 83.8122 62.3859 83.5119 62.0897C80.8925 59.5049 80.8925 59.5049 79.7108 58.1363C78.3601 56.5817 76.874 55.1591 75.3995 53.7208C74.8622 53.1964 74.3263 52.6707 73.7907 52.1446C72.2693 50.6506 70.7466 49.1577 69.2207 47.6681C68.2826 46.7522 67.3468 45.8339 66.4124 44.9142C66.0599 44.5681 65.7064 44.2227 65.3521 43.8783C59.7454 38.4271 55.8591 32.5304 55.7821 24.505C55.8362 17.7651 58.3233 11.5819 63.0389 6.67258C71.2435 -1.00916 84.58 -2.40605 93.8891 4.30672Z" fill="#FE5364"/>
<path d="M26.5398 61.6026C28.0626 62.4275 29.5341 63.301 30.9867 64.246C38.9428 69.1904 47.4183 71.4659 56.5058 73.1882C70.4926 75.8436 82.3236 80.391 90.8332 92.4646C92.1588 94.4449 93.294 96.549 94.3466 98.6876C94.4634 98.9223 94.5801 99.157 94.7004 99.3988C95.7057 101.524 95.7802 102.832 94.9913 105.096C94.9102 105.326 94.8292 105.557 94.7457 105.794C92.7596 111.81 91.9848 118.127 91.61 124.433C91.5929 124.719 91.5757 125.006 91.5581 125.302C91.4621 126.953 91.3786 128.604 91.3059 130.256C90.3124 129.279 89.3994 128.282 88.5313 127.191C87.5023 125.912 86.4667 124.639 85.4147 123.379C85.1677 123.082 84.9208 122.786 84.6664 122.48C82.2256 119.625 79.6409 116.915 76.9931 114.257C76.4977 113.759 76.0041 113.26 75.5105 112.76C73.8348 111.07 72.1389 109.423 70.3254 107.882C70.0041 107.603 69.683 107.323 69.3621 107.043C65.564 103.779 61.5817 100.809 57.5242 97.8832C57.1113 97.5819 56.705 97.2714 56.3034 96.9549C55.3236 96.2496 54.4753 96.4668 53.2976 96.5422C52.8461 96.6939 52.8461 96.6939 52.3854 96.8487C52.2925 97.2743 52.2127 97.7028 52.1384 98.1321C52.0696 98.4895 52.0696 98.4895 51.9994 98.854C52.1217 99.9776 52.772 100.463 53.6017 101.14C54.4806 101.824 55.3788 102.479 56.2813 103.132C58.8326 105.001 61.2944 106.955 63.7226 108.982C64.1839 109.365 64.6506 109.74 65.1182 110.115C68.8729 113.128 72.2693 116.559 75.6655 119.969C75.9187 120.223 76.1719 120.477 76.4327 120.738C77.9057 122.227 79.3096 123.753 80.6636 125.352C80.9207 125.648 81.1779 125.943 81.4428 126.248C84.8148 130.191 88.0712 134.346 90.6978 138.838C88.0483 141.508 79.9181 141.044 76.3687 141.079C61.4235 141.019 48.593 135.691 38.0943 125.046C37.927 124.882 37.7597 124.719 37.5873 124.55C29.3217 116.415 24.9255 104.706 22.891 93.4773C22.8304 93.1487 22.8304 93.1487 22.7686 92.8135C20.986 82.6078 22.3702 71.4698 26.2357 61.909C26.336 61.8079 26.4364 61.7068 26.5398 61.6026Z" fill="#24AD5E"/>
<path d="M143.806 101.567C144.736 102.342 144.979 102.828 145.205 104.012C144.879 105.799 143.491 106.896 142.057 107.89C141.882 108.009 141.707 108.127 141.526 108.249C141.143 108.517 140.76 108.785 140.378 109.054C140.086 109.259 140.086 109.259 139.789 109.469C131.832 115.178 124.365 122.166 118.36 129.914C118.218 130.095 118.075 130.276 117.928 130.462C112.325 137.576 107.793 145.209 103.697 153.274C103.338 153.947 103.338 153.947 102.725 154.871C100.86 155.268 99.2057 154.689 97.5128 153.947C97.6732 152.057 98.4834 150.506 99.2948 148.824C99.4446 148.512 99.5943 148.2 99.7486 147.879C101.275 144.755 103.012 141.783 104.871 138.849C105.003 138.639 105.135 138.43 105.272 138.214C108.017 133.901 111.102 129.829 114.375 125.908C114.633 125.596 114.891 125.284 115.157 124.963C117.306 122.391 119.574 119.97 121.945 117.604C122.521 117.027 123.094 116.448 123.667 115.868C125.791 113.732 127.957 111.759 130.317 109.886C130.651 109.601 130.984 109.315 131.313 109.025C140.501 100.985 140.501 100.985 143.806 101.567Z" fill="#4C8056"/>
<path d="M117.065 0.0209779C123.111 -0.218518 128.205 1.59125 132.782 5.52241C133.029 5.70837 133.277 5.89433 133.533 6.08592C137.748 9.60361 140.476 15.4399 141.102 20.8042C141.637 27.4377 140.601 33.8286 136.156 39.0621C133.954 41.5949 131.635 43.9862 129.244 46.3412C128.663 46.914 128.082 47.4878 127.502 48.0618C126.271 49.2792 125.039 50.4955 123.806 51.7115C122.374 53.1247 120.943 54.5384 119.512 55.9534C118.944 56.5147 118.375 57.075 117.807 57.6353C116.243 59.1794 114.706 60.7275 113.274 62.3939C112.167 63.6384 110.963 64.7923 109.777 65.9617C109.499 66.2364 109.222 66.5111 108.936 66.7941C108.206 67.5162 107.476 68.2375 106.746 68.9586C105.997 69.6978 105.25 70.4378 104.502 71.1778C103.041 72.6236 101.579 74.0686 100.116 75.5128C99.9129 75.412 99.7095 75.3111 99.5 75.2072C99.8522 74.8355 99.8521 74.8355 100.211 74.4562C101.968 72.5911 103.658 70.7029 105.27 68.7113C106.039 67.7915 106.846 66.9124 107.666 66.0381C108.988 64.6292 110.225 63.1719 111.443 61.6721C112.162 60.8097 112.911 59.9848 113.676 59.1614C114.69 58.0678 115.662 56.9561 116.603 55.7994C117.786 54.3458 119.036 52.9707 120.311 51.5969C121.054 50.7755 121.759 49.9343 122.458 49.0754C123.399 47.9187 124.371 46.8069 125.386 45.7134C126.893 44.0842 128.321 42.408 129.7 40.6704C129.92 40.3931 130.14 40.1157 130.367 39.8299C131.794 37.9642 132.873 36.1375 133.706 33.9465C133.85 33.5911 133.994 33.2357 134.142 32.8696C136.571 26.3077 135.746 18.5027 132.839 12.2273C131.904 10.3146 130.813 8.64826 129.392 7.05058C129.202 6.80277 129.012 6.55495 128.816 6.29963C125.935 2.89206 121.443 0.906867 117.065 0.326613C117.065 0.225753 117.065 0.124894 117.065 0.0209779Z" fill="#DF4C5F"/>
<path d="M80.2662 0.049253C80.2662 0.150075 80.2662 0.250897 80.2662 0.354774C80.0831 0.384705 79.9001 0.414637 79.7116 0.445475C74.1432 1.44202 69.6907 4.04756 66.3278 8.63605C63.1684 13.5281 61.6142 18.3966 61.6721 24.2045C61.6685 24.5638 61.665 24.9232 61.6613 25.2935C61.6693 27.6983 62.0066 29.8302 62.7115 32.1289C62.8203 32.4841 62.9291 32.8394 63.0411 33.2054C64.3981 36.8449 66.4268 39.8771 69.1032 42.6932C69.8272 43.4677 70.4947 44.2712 71.1616 45.0944C72.3506 46.553 73.606 47.9347 74.8862 49.3144C75.871 50.4027 76.7903 51.5373 77.7157 52.6752C78.439 53.5401 79.191 54.3689 79.9582 55.1957C81.2189 56.5544 82.3987 57.9598 83.5673 59.3966C84.2905 60.2615 85.0426 61.0904 85.8097 61.9172C87.0704 63.2759 88.2503 64.6813 89.4188 66.1181C90.1421 66.983 90.8941 67.8118 91.6613 68.6386C93.1693 70.2649 94.5752 71.9601 95.9729 73.6797C96.4837 74.2929 96.9979 74.9031 97.5128 75.5128C96.365 75.037 95.6358 74.3375 94.7617 73.4689C94.6148 73.3238 94.4679 73.1786 94.3165 73.029C93.8321 72.5496 93.35 72.0681 92.8679 71.5864C92.5297 71.2505 92.1914 70.9148 91.853 70.5791C91.1435 69.8748 90.435 69.1695 89.7273 68.4633C88.826 67.564 87.9227 66.6667 87.0186 65.7701C86.3191 65.0761 85.6204 64.3813 84.922 63.6862C84.5896 63.3555 84.257 63.0249 83.9242 62.6946C81.0118 59.8012 81.0118 59.8012 79.8177 58.4137C78.4675 56.8515 76.9786 55.424 75.5031 53.9798C74.963 53.4509 74.4242 52.9206 73.8858 52.39C72.3563 50.8829 70.8256 49.3771 69.2916 47.8746C68.3486 46.9506 67.4079 46.0244 66.4686 45.0967C66.1141 44.7475 65.7589 44.3992 65.4027 44.0518C59.7664 38.5532 55.8595 32.6052 55.7821 24.51C55.8365 17.7114 58.3367 11.4745 63.0772 6.52247C66.0192 3.75864 69.3166 1.87091 73.1827 0.660294C73.4185 0.585465 73.6543 0.510637 73.8973 0.433541C75.9825 -0.123674 78.1238 -0.00516392 80.2662 0.049253Z" fill="#DF4C5F"/>
<path d="M55.2566 95.3897C56.5752 95.6487 57.53 96.4897 58.5677 97.3063C58.9264 97.578 58.9264 97.578 59.2924 97.8552C60.0103 98.4017 60.7216 98.956 61.4321 99.5122C61.8215 99.8117 62.2109 100.111 62.6006 100.41C65.8812 102.948 69.0272 105.655 72.126 108.412C72.336 108.597 72.546 108.783 72.7624 108.973C74.8409 110.825 76.8214 112.765 78.7854 114.738C79.3239 115.278 79.8648 115.816 80.4059 116.353C82.4739 118.42 84.3705 120.536 86.1807 122.837C86.4917 123.211 86.8045 123.583 87.12 123.953C87.2545 124.111 87.389 124.269 87.5276 124.432C87.7915 124.741 88.0556 125.049 88.3201 125.357C88.5909 125.676 88.8576 125.998 89.12 126.324C89.5385 126.84 89.5385 126.84 90.0468 127.316C91.6244 129.009 91.5822 130.792 91.536 132.988C91.5207 133.441 91.5051 133.893 91.4894 134.346C91.4802 134.808 91.4719 135.269 91.4644 135.731C91.4443 136.856 91.4128 137.979 91.3749 139.103C90.961 138.479 90.5505 137.853 90.1432 137.225C88.4219 134.586 86.6103 132.056 84.653 129.589C84.4234 129.298 84.1938 129.008 83.9572 128.709C82.572 126.982 81.1262 125.325 79.6284 123.696C79.0374 123.046 78.4644 122.388 77.8942 121.719C76.5971 120.226 75.2076 118.827 73.8101 117.43C73.3679 116.987 72.9274 116.543 72.487 116.099C70.8911 114.494 69.2652 112.948 67.5429 111.481C67.2344 111.212 66.9261 110.943 66.6179 110.673C63.478 107.972 60.2194 105.432 56.855 103.019C56.6052 102.84 56.3554 102.66 56.098 102.476C55.6164 102.132 55.1336 101.79 54.6492 101.45C54.4307 101.294 54.2122 101.139 53.987 100.978C53.7945 100.843 53.6019 100.708 53.4036 100.568C52.493 99.8033 52.0081 99.1796 51.8077 97.9968C51.9605 97.057 51.9605 97.057 52.5715 96.1746C53.5363 95.4882 54.0863 95.3548 55.2566 95.3897Z" fill="#4B8056"/>
<path d="M71.9686 12.0035C72.9265 12.6014 72.9265 12.6014 73.5991 13.453C73.8011 14.9137 73.5747 15.7288 72.5877 16.9153C72.4506 17.0702 72.3136 17.2251 72.1724 17.3847C69.9531 19.9587 69.6355 22.4551 70.0119 25.6287C70.3824 27.019 70.8517 28.2832 71.8412 29.4211C72.5525 30.2933 72.439 30.9614 72.2947 32.0064C71.6303 33.0932 71.2136 33.3897 69.8897 33.7821C68.6546 33.7442 68.0975 33.5734 67.2095 32.807C64.4111 29.6905 63.4149 25.4568 63.816 21.5701C64.3441 18.2499 66.0663 14.9964 68.7075 12.5833C69.9306 11.8584 70.5202 11.8481 71.9686 12.0035Z" fill="#FFFBFB"/>
<path d="M81.8926 8.0439C82.2598 8.06374 82.6269 8.08358 83.0052 8.10402C84.2499 8.44035 84.7162 8.83388 85.4529 9.96786C85.7116 11.2045 85.6184 12.2077 85.0449 13.3348C83.8219 14.0901 82.6738 13.9228 81.2993 13.8158C81.0751 13.8092 80.851 13.8025 80.6201 13.7957C79.5582 13.7269 79.0001 13.5634 78.1841 12.8137C77.615 11.6349 77.5438 10.9603 77.739 9.6472C78.8741 7.78722 80.0169 7.84535 81.8926 8.0439Z" fill="#FFFBFC"/>
</svg>
