<svg width="200" height="194" viewBox="0 0 200 194" fill="none" xmlns="http://www.w3.org/2000/svg">
<path d="M16.0456 49.5C8.99461 62.7748 5 77.9209 5 94C5 146.467 47.5329 189 100 189C152.467 189 195 146.467 195 94C195 77.9209 191.005 62.7748 183.954 49.5M16.0456 49.5C16.6732 48.3183 17.3251 47.1514 18.0006 46L16.0456 49.5ZM183.954 49.5C183.327 48.3183 182.675 47.1514 181.999 46L183.954 49.5Z" stroke="#008A7E" stroke-width="10"/>
<path d="M65.0208 0.226456C65.9982 0.215874 66.9756 0.208404 67.9531 0.202201C68.4974 0.197698 69.0417 0.193196 69.6024 0.188557C72.1459 0.247106 74.5709 0.671515 77.0577 1.18175C77.5725 1.28615 78.0873 1.39055 78.6177 1.49812C83.4756 2.55282 87.8782 4.2541 92.3284 6.43585C93.0685 6.78958 93.0685 6.78958 93.8236 7.15046C107.741 14.2595 118.306 27.1447 123.469 41.7817C125.5 48.3451 126.426 54.6243 126.39 61.4883C126.389 62.2256 126.389 62.2256 126.388 62.9778C126.385 64.5299 126.379 66.0821 126.373 67.6342C126.371 68.694 126.368 69.7538 126.366 70.8136C126.361 73.3959 126.353 75.9781 126.343 78.5604C126.668 78.4625 126.993 78.3646 127.327 78.2637C127.996 78.0707 127.996 78.0707 128.679 77.8738C129.112 77.7463 129.546 77.6189 129.992 77.4875C133.608 76.6841 137.258 76.5793 140.95 76.5956C141.376 76.5955 141.801 76.5954 142.24 76.5954C143.63 76.5957 145.019 76.5994 146.408 76.6032C147.379 76.604 148.349 76.6047 149.32 76.6052C151.861 76.607 154.402 76.6117 156.942 76.617C159.54 76.6219 162.139 76.6241 164.737 76.6265C169.825 76.6316 174.912 76.6397 180 76.6498C179.94 78.236 179.874 79.8218 179.807 81.4076C179.791 81.8515 179.774 82.2954 179.757 82.7527C179.064 98.5968 169.994 113.014 158.531 123.51C151.662 129.441 143.243 133.584 134.487 135.878C133.983 136.015 133.48 136.151 132.96 136.292C128.733 137.398 124.737 137.861 120.381 137.843C119.728 137.843 119.728 137.843 119.062 137.843C117.637 137.843 116.211 137.839 114.785 137.835C113.792 137.834 112.798 137.834 111.805 137.833C109.2 137.831 106.594 137.827 103.989 137.821C101.327 137.816 98.6642 137.814 96.0019 137.812C90.7851 137.807 85.5682 137.799 80.3514 137.788C80.3466 136.952 80.3432 136.115 80.3404 135.278C80.3383 134.811 80.3363 134.345 80.3342 133.865C80.3551 132.241 80.5272 130.677 80.7705 129.071C80.8873 128.27 80.8873 128.27 81.0063 127.452C81.3269 125.755 81.7673 124.156 82.2677 122.504C81.6063 122.52 81.6063 122.52 80.9315 122.537C64.3784 122.773 49.6218 116.69 37.7132 105.309C37.1241 104.766 37.1241 104.766 36.523 104.213C30.9445 98.9192 27.136 92.601 23.8199 85.7251C23.4651 84.9945 23.4651 84.9945 23.1032 84.2492C21.6114 80.7974 20.8453 77.2139 20.0771 73.5451C19.9194 72.8053 19.9194 72.8053 19.7585 72.0506C19.2447 69.4322 18.9765 66.9536 19.0016 64.2823C19.0056 63.7331 19.0096 63.1838 19.0136 62.618C19.0188 62.2045 19.0239 61.7911 19.0291 61.3651C24.5185 61.3429 30.0079 61.326 35.4973 61.3156C38.047 61.3107 40.5967 61.304 43.1464 61.2931C45.6128 61.2826 48.0792 61.277 50.5457 61.2745C51.4807 61.2727 52.4157 61.2693 53.3507 61.2641C58.9246 61.2344 64.2977 61.4605 69.8116 62.3204C69.6523 62.0045 69.493 61.6887 69.3288 61.3632C63.603 49.5884 64.7218 35.9345 64.8563 23.2357C64.8812 20.6351 64.8918 18.0344 64.9038 15.4337C64.9292 10.3645 64.9699 5.29549 65.0208 0.226456Z" fill="#4E8E29"/>
<path d="M129.362 23.2613C129.703 23.007 130.044 22.7528 130.396 22.4908C131.509 21.662 132.624 20.8358 133.739 20.0097C134.517 19.4312 135.295 18.8525 136.073 18.2736C138.109 16.7588 140.147 15.2463 142.186 13.7342C144.27 12.1876 146.353 10.6388 148.435 9.09016C152.514 6.05796 156.595 3.02821 160.676 0C161.581 1.30613 162.48 2.6159 163.378 3.92635C163.631 4.29183 163.885 4.6573 164.146 5.03386C173.103 18.1393 174.493 35.1018 171.612 50.3502C169.67 59.2009 165.413 67.5445 159.777 74.6068C159.455 75.0171 159.133 75.4273 158.802 75.85C156.08 79.2591 153.157 82.0144 149.656 84.5994C149.133 84.989 149.133 84.989 148.6 85.3865C147.458 86.237 146.313 87.0848 145.169 87.9326C144.373 88.5248 143.576 89.1171 142.78 89.7096C140.692 91.263 138.602 92.8141 136.512 94.3647C134.376 95.9496 132.242 97.5366 130.108 99.1236C125.926 102.233 121.742 105.34 117.557 108.445C117.05 107.774 116.543 107.102 116.036 106.43C115.754 106.056 115.472 105.683 115.181 105.297C106.289 93.1686 103.694 77.1848 105.584 62.5457C108.256 46.7452 116.444 32.7966 129.362 23.2613Z" fill="#6BC03B"/>
<path d="M154.021 24.6349C156.272 25.9974 158.019 27.325 159.858 29.2306C159.529 29.6679 159.529 29.6679 159.193 30.1141C150.492 41.7387 143.097 53.8553 136.603 66.828C136.3 67.4243 136.3 67.4243 135.992 68.0327C131.921 76.0711 128.667 84.5604 125.98 93.1514C125.852 93.5628 125.723 93.9743 125.59 94.3982C125.033 96.2142 124.518 98.0228 124.103 99.8765C123.162 103.831 122.055 105.661 118.577 107.874C118.241 108.062 117.904 108.251 117.557 108.445C116.1 107.196 115.134 106.018 114.403 104.236C114.617 101.968 115.352 99.9305 116.129 97.8051C116.544 96.6367 116.91 95.4612 117.267 94.2741C123.916 72.1631 134.245 51.5215 147.396 32.5521C147.651 32.1825 147.906 31.8129 148.169 31.4321C151.93 26.0176 151.93 26.0176 154.021 24.6349Z" fill="#559B2D"/>
<path d="M69.644 21.9307C73.7762 25.458 77.9031 28.9915 82.0235 32.5325C83.9378 34.1773 85.8537 35.8201 87.7739 37.4581C89.6338 39.0447 91.4888 40.637 93.3408 42.2329C94.0412 42.8348 94.7431 43.4348 95.4469 44.0327C109.775 56.2145 118.036 69.9059 119.932 88.7867C119.976 89.2009 120.02 89.6151 120.065 90.0418C120.333 93.0286 120.199 95.954 119.979 98.9415C119.554 98.9232 119.13 98.905 118.692 98.8861C116.789 98.8161 114.886 98.7706 112.981 98.7404C112.651 98.7331 112.321 98.7258 111.981 98.7182C107.212 98.6461 102.758 99.0841 98.1527 100.344C97.6899 100.469 97.2271 100.595 96.7503 100.724C89.5865 102.709 83.5468 105.47 77.2573 109.427C64.6184 99.0468 56.7429 85.2029 55.0343 68.8906C54.9867 68.3776 54.9391 67.8646 54.89 67.3361C54.8011 66.5417 54.8011 66.5417 54.7103 65.7313C53.9736 58.0878 55.2471 50.8266 57.2591 43.4655C57.4003 42.9431 57.5416 42.4206 57.6872 41.8823C58.8279 38.2999 60.6035 35.0919 62.4335 31.8181C62.6781 31.3768 62.9226 30.9355 63.1746 30.4808C64.5067 28.1669 65.9325 26.1189 67.7066 24.1169C68.0705 23.7045 68.4344 23.2921 68.8092 22.8672C69.0847 22.5581 69.3602 22.2491 69.644 21.9307Z" fill="#559B2D"/>
<path d="M77.7494 49.7975C79.5643 52.7557 81.139 55.7776 82.6531 58.8982C82.898 59.3993 83.1428 59.9005 83.3951 60.4168C84.1911 62.0473 84.9847 63.6789 85.7781 65.3106C86.3273 66.438 86.8767 67.5652 87.4261 68.6925C88.2628 70.4094 89.0994 72.1264 89.935 73.8438C91.4958 77.0506 93.0621 80.2545 94.637 83.4544C95.5363 85.2819 96.4333 87.1105 97.3301 88.9392C97.7491 89.7923 98.1691 90.6448 98.5901 91.4968C99.1693 92.6695 99.7447 93.8439 100.319 95.0188C100.49 95.3631 100.662 95.7073 100.838 96.0619C101.98 98.4118 101.98 98.4118 101.684 99.5644C100.657 99.8262 99.6276 100.081 98.5978 100.334C98.0248 100.477 97.4519 100.62 96.8616 100.767C95.3363 101.031 95.3363 101.031 93.9365 100.454C93.3119 99.4618 93.3119 99.4618 92.6583 98.1239C92.402 97.6043 92.1457 97.0846 91.8817 96.5492C91.5964 95.9586 91.3111 95.3679 91.026 94.7772C90.7221 94.1559 90.4179 93.5348 90.1134 92.9139C88.9987 90.6341 87.8961 88.3486 86.7946 86.0625C86.5632 85.5823 86.3318 85.1021 86.0934 84.6073C83.7472 79.7368 81.4028 74.8654 79.0689 69.989C76.3951 64.4064 73.6919 58.8437 70.8701 53.3337C73.1108 51.9656 75.2812 50.7311 77.7494 49.7975Z" fill="#4D8C28"/>
<path d="M140.95 76.5956C141.376 76.5955 141.801 76.5954 142.24 76.5954C143.63 76.5957 145.019 76.5994 146.408 76.6032C147.379 76.604 148.349 76.6047 149.32 76.6052C151.861 76.607 154.402 76.6117 156.942 76.617C159.54 76.6219 162.139 76.6241 164.737 76.6265C169.825 76.6316 174.912 76.6397 180 76.6498C179.94 78.236 179.874 79.8218 179.807 81.4076C179.791 81.8515 179.774 82.2954 179.757 82.7527C179.064 98.5968 169.994 113.014 158.531 123.51C151.662 129.441 143.243 133.584 134.487 135.878C133.983 136.015 133.48 136.151 132.96 136.292C128.733 137.398 124.737 137.861 120.381 137.843C119.728 137.843 119.728 137.843 119.062 137.843C117.637 137.843 116.211 137.839 114.785 137.835C113.792 137.834 112.798 137.834 111.805 137.833C109.2 137.831 106.594 137.827 103.989 137.821C101.327 137.816 98.6642 137.814 96.0019 137.812C90.7851 137.807 85.5682 137.799 80.3514 137.788C80.3475 136.948 80.3449 136.107 80.3426 135.267C80.341 134.799 80.3393 134.331 80.3376 133.848C80.4963 118.826 88.0139 104.473 98.317 93.8746C109.943 82.8116 124.877 76.5249 140.95 76.5956Z" fill="#6BC03B"/>
<path d="M159.879 92.4119C160.864 94.847 161.467 96.9529 161.795 99.5766C161.269 99.7307 161.269 99.7307 160.733 99.8879C146.783 104.007 133.585 109.3 120.594 115.817C119.994 116.114 119.994 116.114 119.381 116.417C111.294 120.427 103.59 125.285 96.2809 130.564C95.9307 130.817 95.5804 131.069 95.2196 131.33C93.6833 132.452 92.1846 133.593 90.7397 134.831C87.6114 137.438 85.626 138.243 81.5118 137.939C81.1289 137.89 80.7458 137.84 80.3514 137.788C79.9342 135.919 79.8675 134.398 80.3515 132.534C81.8844 130.845 83.6966 129.651 85.5956 128.413C86.6294 127.725 87.6283 127.001 88.6269 126.263C107.228 112.519 127.895 102.148 149.818 94.8002C150.245 94.6565 150.671 94.5128 151.11 94.3647C157.374 92.2719 157.374 92.2719 159.879 92.4119Z" fill="#559B2D"/>
<path d="M19.0291 61.3651C24.4688 61.3316 29.9086 61.306 35.3484 61.2906C37.8755 61.2831 40.4025 61.2731 42.9295 61.2567C45.3773 61.2409 47.8251 61.2325 50.2729 61.2288C51.1976 61.2262 52.1222 61.2211 53.0468 61.2133C71.8768 61.06 87.1138 66.0103 100.952 79.0377C101.257 79.3222 101.562 79.6066 101.876 79.8997C104.041 81.9814 105.862 84.279 107.659 86.68C107.326 86.9436 106.993 87.2071 106.65 87.4786C105.166 88.6689 103.698 89.8772 102.239 91.0983C101.985 91.3082 101.731 91.5182 101.469 91.7345C97.818 94.795 94.7408 98.0344 92.0888 101.995C91.8214 102.391 91.5539 102.788 91.2784 103.197C87.17 109.376 84.4203 115.407 82.2677 122.504C65.8982 122.915 50.852 117.598 38.8436 106.389C38.4705 106.032 38.0975 105.676 37.7132 105.309C37.1241 104.766 37.1241 104.766 36.523 104.213C30.9445 98.9192 27.136 92.601 23.8199 85.7251C23.5834 85.238 23.3469 84.751 23.1032 84.2492C21.6114 80.7974 20.8453 77.2139 20.0771 73.5451C19.972 73.0519 19.8668 72.5587 19.7585 72.0506C19.2447 69.4322 18.9765 66.9536 19.0016 64.2823C19.0056 63.7331 19.0096 63.1838 19.0136 62.618C19.0188 62.2045 19.0239 61.7911 19.0291 61.3651Z" fill="#559B2D"/>
<path d="M43.4623 77.1271C46.7772 78.177 49.9525 79.4319 53.1468 80.8009C53.6611 81.0197 54.1753 81.2384 54.7052 81.4638C56.3779 82.1759 58.0495 82.8904 59.7211 83.6052C60.8767 84.0983 62.0324 84.5913 63.1882 85.0842C64.9485 85.835 66.7087 86.586 68.4684 87.338C71.7546 88.7417 75.0431 90.1395 78.3354 91.5288C80.2156 92.3223 82.0948 93.1181 83.9739 93.9142C84.851 94.2851 85.7284 94.655 86.6064 95.0238C87.8145 95.5316 89.0208 96.0432 90.2269 96.5558C90.5824 96.704 90.9379 96.8523 91.3043 97.005C93.7111 98.0346 93.7111 98.0346 94.2448 99.0988C93.6404 99.9677 93.0305 100.833 92.4183 101.696C92.0792 102.178 91.7402 102.66 91.3909 103.157C90.4121 104.353 90.4121 104.353 88.9749 104.831C87.8513 104.489 87.8513 104.489 86.4784 103.905C85.9434 103.68 85.4084 103.455 84.8571 103.223C84.2534 102.963 83.6498 102.703 83.0463 102.442C82.4085 102.171 81.7706 101.901 81.1325 101.631C78.7924 100.636 76.4577 99.6292 74.1234 98.6212C73.6331 98.4095 73.1427 98.1978 72.6375 97.9797C67.6648 95.8318 62.6928 93.6821 57.7254 91.5218C52.0373 89.0499 46.34 86.6122 40.5878 84.2918C41.382 81.7947 42.2108 79.4444 43.4623 77.1271Z" fill="#4D8C28"/>
</svg>
