<svg xmlns="http://www.w3.org/2000/svg" viewBox="0 0 180 180"><defs><style>.cls-1{fill:#fff;}.cls-2{fill:#061922;}.cls-3{fill:#8cb74a;}.cls-4{fill:#231f20;}.cls-5{fill:none;stroke:#231f20;stroke-miterlimit:10;stroke-width:0.49px;}</style></defs><g id="Layer_2" data-name="Layer 2"><g id="Layer_1-2" data-name="Layer 1"><circle class="cls-1" cx="90" cy="90" r="90"/><path class="cls-2" d="M92.49,94.89V38.68c.59,0,1.08-.07,1.57-.07,6.81,0,13.62,0,20.43,0,1.26,0,1.39.56,1.39,1.56q-.06,13.17-.07,26.35c0,1.76,0,1.76,1.71,1.78,2.67,0,2.63,0,2.62-2.59,0-9.93-.06-19.86,0-29.79,0-1.2-.33-1.5-1.51-1.5-9.65.05-19.29,0-28.94,0H88.07v31l-.33.14a25,25,0,0,0-11-13.18,28.7,28.7,0,0,0-16.84-3.57,25.25,25.25,0,0,0,2.73,13.52C67.76,71.81,76,76.35,86.68,76.88c.79,0,1.43,0,1.42,1.1,0,5.5,0,11,0,16.5a5.33,5.33,0,0,1-.23,1,9.65,9.65,0,0,1-.51-1,23.66,23.66,0,0,0-4.95-8.13C76.68,80,69.43,77.23,61,77.21c-.82,0-1.11.3-1.07,1.07.12,2.21,0,4.44.38,6.62a27.31,27.31,0,0,0,24.34,23.3c5.25.53,10.5.62,15.61-.86,13.44-3.87,21.17-16,19.89-30C112.68,76.51,98.48,80.21,92.49,94.89Z"/><path class="cls-2" d="M103,119.78h.14v.37c0,2.35,0,4.7,0,7,0,.55.16.79.71.75.22,0,.44,0,.67,0,.43,0,.63-.18.61-.63s0-.89,0-1.33v-7c0-.43,0-.86-.55-1-1.83-.44-2.7,0-3.41,1.77-.09.21-.17.42-.25.62-.6,1.51-1.21,3-1.88,4.69-.68-1.75-1.28-3.34-1.89-4.92-.9-2.32-.53-2.19-3.38-2.18h-.08c-.55,0-.79.3-.79.84,0,2.85,0,5.69,0,8.54,0,.18.08.51.15.52a5.24,5.24,0,0,0,1.53,0c.14,0,.25-.56.26-.87,0-2.39,0-4.78,0-7.16a1.71,1.71,0,0,1,.42.68c.81,2.22,1.64,4.43,2.39,6.67.26.77.76.76,1.38.78a1,1,0,0,0,1.21-.79C101.16,124.69,102.11,122.24,103,119.78Z"/><path class="cls-2" d="M35.19,118.32v9.16c2,0,4,.12,5.91,0a2.4,2.4,0,0,0,2.27-2.76,2.43,2.43,0,0,0-1.81-2,2.21,2.21,0,0,0,1.21-2.55,2,2,0,0,0-1.88-1.74C39,118.24,37.11,118.32,35.19,118.32Z"/><path class="cls-2" d="M54.6,127.61l-2.33-3.35c.26-.15.46-.24.65-.36a3,3,0,0,0,.73-4.55,2.64,2.64,0,0,0-1.47-.9c-1.92-.2-3.85-.26-5.8-.37v9.49h2.08v-2.86a1.72,1.72,0,0,1,2.3.87A13.19,13.19,0,0,0,52,127.27a.8.8,0,0,0,.51.33C53.12,127.64,53.78,127.61,54.6,127.61Z"/><path class="cls-2" d="M69.41,118.25v9.32h2.08v-3.73h4.25v3.72h2.08v-9.29h-2.1v3.64H71.46v-3.66Z"/><path class="cls-2" d="M90.51,127.77c-.11-.31-.19-.54-.29-.76-1.11-2.52-2.26-5-3.3-7.58-.34-.82-.74-1.21-1.61-1a1.41,1.41,0,0,1-.29,0c-.47-.07-.69.13-.87.57-.69,1.65-1.45,3.29-2.16,4.94-.55,1.25-1.07,2.52-1.65,3.88.68,0,1.25,0,1.81,0,.19,0,.49-.21.52-.37.27-1.32,1.11-1.63,2.31-1.43a3.45,3.45,0,0,0,1.11,0,1.5,1.5,0,0,1,2,1.26.83.83,0,0,0,.55.53A16.84,16.84,0,0,0,90.51,127.77Z"/><path class="cls-2" d="M32.56,127.61c0-.09,0-.12,0-.14-1.3-3-2.59-6-3.92-9-.28-.62-.93-.21-1.41-.3s-.78.12-1,.62c-.72,1.76-1.52,3.48-2.28,5.22-.51,1.17-1,2.35-1.52,3.58a4.27,4.27,0,0,1,.68,0,1.54,1.54,0,0,0,2.06-1.33c.1-.44.37-.56.81-.55,1,0,2,0,3,0,.41,0,.67.1.76.51a1.6,1.6,0,0,0,2.12,1.38A3.15,3.15,0,0,1,32.56,127.61Z"/><path class="cls-2" d="M56.53,127.61a3.48,3.48,0,0,1,.59,0c1.17.2,2-.13,2.23-1.4.08-.43.37-.52.77-.5.76,0,1.53,0,2.3,0,1.34,0,1.33,0,1.89,1.25.1.24.32.57.51.6a14.72,14.72,0,0,0,1.88,0,.83.83,0,0,0,0-.25q-1.92-4.44-3.86-8.87a.74.74,0,0,0-.51-.31c-.34,0-.69,0-1,0a.79.79,0,0,0-.87.61c-.32.85-.74,1.67-1.11,2.51C58.38,123.36,57.48,125.44,56.53,127.61Z"/><path class="cls-2" d="M117.18,120.48v7l.66,0v-2.54c1.79-.34,2-.27,2.94,1.05a10.59,10.59,0,0,0,.81,1.06,5.36,5.36,0,0,0,.88.58l.17-.22-2-2.67a1.66,1.66,0,0,1,.33-.15,1.94,1.94,0,0,0,0-3.83C119.74,120.51,118.48,120.54,117.18,120.48Z"/><path class="cls-2" d="M140.84,122l.2-.07c1.37,1.72,2.73,3.43,4.11,5.14a6,6,0,0,0,.76.6c0-2.42,0-4.57,0-6.72,0-.14-.17-.27-.27-.41-.11.15-.3.3-.31.46,0,1.13,0,2.27-.05,3.41v1.42L145,126a3.83,3.83,0,0,0-.25-.44c-1.19-1.52-2.37-3-3.59-4.53a4.3,4.3,0,0,0-1-.63v7.06h.64V122Z"/><path class="cls-2" d="M111.68,127.45a3.4,3.4,0,0,0,3.55-3.46,3.57,3.57,0,1,0-3.55,3.46Z"/><path class="cls-2" d="M129.76,124.33c0,.57,0,1,0,1.5a.87.87,0,0,1-.32.52,2.94,2.94,0,0,1-4.2-4,2.88,2.88,0,0,1,4-1c.2.12.4.26.63.42l.42-.51a3.82,3.82,0,0,0-4.77-.21,3.62,3.62,0,0,0-1.15,4.13c1,2.59,4.11,2.77,5.93,1.29a.59.59,0,0,0,.2-.37c0-.78,0-1.56,0-2.37-.82,0-1.53,0-2.24-.12-.52-.05-.6.17-.45.65Z"/><path class="cls-2" d="M138.62,127.36c-1-2.2-2-4.4-3-6.58-.21-.47-.77-.44-1,.06-1,2.16-2,4.33-3,6.5l.13.17c.22-.14.6-.24.64-.42.31-1.4,1.24-1.64,2.47-1.47a2.24,2.24,0,0,0,.73,0c1.07-.17,1.81.12,2.05,1.28C137.8,127.33,138.07,127.6,138.62,127.36Z"/><path class="cls-2" d="M156.9,122c.76-.49.23-.75-.12-1a3.6,3.6,0,0,0-4.77,5.3,3.63,3.63,0,0,0,4.58.65c.29-.18.72-.7.66-.78-.37-.55-.64,0-.93.19a2.83,2.83,0,0,1-3.21,0,2.78,2.78,0,0,1-1.24-2.76,2.84,2.84,0,0,1,2.14-2.48A3,3,0,0,1,156.9,122Z"/><path class="cls-2" d="M149.12,127.41v-6.85h-.63v6.85Z"/><path class="cls-3" d="M92.49,94.89c6-14.68,20.19-18.38,27.68-17.54,1.28,14-6.45,26.12-19.89,30-5.11,1.48-10.36,1.39-15.61.86A27.31,27.31,0,0,1,60.33,84.9c-.33-2.18-.26-4.41-.38-6.62,0-.77.25-1.07,1.07-1.07,8.41,0,15.66,2.77,21.35,9.11a23.66,23.66,0,0,1,4.95,8.13,9.65,9.65,0,0,0,.51,1,5.33,5.33,0,0,0,.23-1c0-5.5,0-11,0-16.5,0-1.14-.63-1.06-1.42-1.1C76,76.35,67.76,71.81,62.61,62.25a25.25,25.25,0,0,1-2.73-13.52A28.7,28.7,0,0,1,76.72,52.3a25,25,0,0,1,11,13.18l.33-.14V34.39h1.59c9.65,0,19.29,0,28.94,0,1.18,0,1.52.3,1.51,1.5,0,9.93,0,19.86,0,29.79,0,2.62,0,2.62-2.62,2.59-1.71,0-1.71,0-1.71-1.78q0-13.17.07-26.35c0-1-.13-1.58-1.39-1.56-6.81.06-13.62,0-20.43,0-.49,0-1,0-1.57.07ZM115.78,81.7C103.68,83,95.2,93.64,95.52,103.78,104.79,104.64,117.46,90.89,115.78,81.7Zm-31,22c.46-11.36-10-21.55-20.26-21.87C62.83,90.84,75.44,104.44,84.76,103.75ZM64.47,53.08c-1.09,8.1,12.47,20.77,20.35,19.12C84.42,62.31,75.07,53.33,64.47,53.08Z"/><path class="cls-4" d="M103,119.78c-.93,2.46-1.88,4.91-2.76,7.39a1,1,0,0,1-1.21.79c-.62,0-1.12,0-1.38-.78-.75-2.24-1.58-4.45-2.39-6.67a1.71,1.71,0,0,0-.42-.68c0,2.38,0,4.77,0,7.16,0,.31-.12.85-.26.87a5.24,5.24,0,0,1-1.53,0c-.07,0-.15-.34-.15-.52,0-2.85,0-5.69,0-8.54,0-.54.24-.83.79-.84h.08c2.85,0,2.48-.14,3.38,2.18.61,1.58,1.21,3.17,1.89,4.92.67-1.67,1.28-3.18,1.88-4.69.08-.2.16-.41.25-.62.71-1.75,1.58-2.21,3.41-1.77.55.13.55.56.55,1v7c0,.44,0,.89,0,1.33s-.18.64-.61.63c-.23,0-.45,0-.67,0-.55,0-.72-.2-.71-.75,0-2.34,0-4.69,0-7v-.37Z"/><path class="cls-4" d="M35.19,118.32c1.92,0,3.82-.08,5.7,0a2,2,0,0,1,1.88,1.74,2.21,2.21,0,0,1-1.21,2.55,2.43,2.43,0,0,1,1.81,2,2.4,2.4,0,0,1-2.27,2.76c-1.93.16-3.89,0-5.91,0Zm2.09,7.52c.93,0,1.81,0,2.7,0s1.17-.38,1.19-1a1.06,1.06,0,0,0-1.06-1.18c-.92-.07-1.85,0-2.83,0Zm0-3.81c.91-.06,1.76-.09,2.61-.19a.82.82,0,0,0,.76-.93.83.83,0,0,0-.84-.86c-.83,0-1.66,0-2.53,0Z"/><path class="cls-4" d="M54.6,127.61c-.82,0-1.48,0-2.14,0a.8.8,0,0,1-.51-.33,13.19,13.19,0,0,1-1.19-1.69,1.72,1.72,0,0,0-2.3-.87v2.86H46.38v-9.49c1.95.11,3.88.17,5.8.37a2.64,2.64,0,0,1,1.47.9,3,3,0,0,1-.73,4.55c-.19.12-.39.21-.65.36Zm-6.13-4.69c1-.06,1.85,0,2.72-.18a1.23,1.23,0,0,0,1.09-1.37,1.3,1.3,0,0,0-1.21-1.28c-.85-.07-1.71,0-2.6,0Z"/><path class="cls-4" d="M69.41,118.25h2v3.66h4.26v-3.64h2.1v9.29H75.74v-3.72H71.49v3.73H69.41Z"/><path class="cls-4" d="M90.51,127.77a16.84,16.84,0,0,1-1.89,0,.83.83,0,0,1-.55-.53,1.5,1.5,0,0,0-2-1.26A3.45,3.45,0,0,1,85,126c-1.2-.2-2,.11-2.31,1.43,0,.16-.33.35-.52.37-.56,0-1.13,0-1.81,0,.58-1.36,1.1-2.63,1.65-3.88.71-1.65,1.47-3.29,2.16-4.94.18-.44.4-.64.87-.57a1.41,1.41,0,0,0,.29,0c.87-.17,1.27.22,1.61,1,1,2.55,2.19,5.06,3.3,7.58C90.32,127.23,90.4,127.46,90.51,127.77ZM84,124.18h2.79c-.47-1.1-.9-2.14-1.41-3.36C84.89,122,84.46,123.06,84,124.18Z"/><path class="cls-4" d="M32.56,127.61a3.15,3.15,0,0,0-.62,0,1.6,1.6,0,0,1-2.12-1.38c-.09-.41-.35-.52-.76-.51-1,0-2,0-3,0-.44,0-.71.11-.81.55a1.54,1.54,0,0,1-2.06,1.33,4.27,4.27,0,0,0-.68,0c.53-1.23,1-2.41,1.52-3.58.76-1.74,1.56-3.46,2.28-5.22.21-.5.49-.71,1-.62s1.13-.32,1.41.3c1.33,3,2.62,6,3.92,9C32.6,127.49,32.58,127.52,32.56,127.61Zm-5.05-7c-.51,1.26-.94,2.3-1.38,3.37h2.79C28.45,122.88,28,121.85,27.51,120.62Z"/><path class="cls-4" d="M56.53,127.61c.95-2.17,1.85-4.25,2.76-6.31.37-.84.79-1.66,1.11-2.51a.79.79,0,0,1,.87-.61c.34,0,.69,0,1,0a.74.74,0,0,1,.51.31q1.95,4.42,3.86,8.87a.83.83,0,0,1,0,.25,14.72,14.72,0,0,1-1.88,0c-.19,0-.41-.36-.51-.6-.56-1.25-.55-1.25-1.89-1.25-.77,0-1.54,0-2.3,0-.4,0-.69.07-.77.5-.24,1.27-1.06,1.6-2.23,1.4A3.48,3.48,0,0,0,56.53,127.61Zm5.13-7c-.52,1.27-.95,2.32-1.39,3.42h2.8C62.61,122.91,62.17,121.86,61.66,120.61Z"/><path class="cls-3" d="M117.18,120.48c1.3.06,2.56,0,3.8.19a1.94,1.94,0,0,1,0,3.83,1.66,1.66,0,0,0-.33.15l2,2.67-.17.22a5.36,5.36,0,0,1-.88-.58,10.59,10.59,0,0,1-.81-1.06c-1-1.32-1.15-1.39-2.94-1.05v2.54l-.66,0Zm2.18,3.68a10.9,10.9,0,0,0,1.52-.21,1.25,1.25,0,0,0,1-1.48,1.36,1.36,0,0,0-1.23-1.27,9.79,9.79,0,0,0-1.32-.11c-1.85,0-1.48-.09-1.51,1.49S117.84,124.12,119.36,124.16Z"/><path class="cls-3" d="M140.84,122v5.42h-.64v-7.06a4.3,4.3,0,0,1,1,.63c1.22,1.49,2.4,3,3.59,4.53a3.83,3.83,0,0,1,.25.44l.26-.13V124.4c0-1.14,0-2.28.05-3.41,0-.16.2-.31.31-.46.1.14.27.27.27.41,0,2.15,0,4.3,0,6.72a6,6,0,0,1-.76-.6c-1.38-1.71-2.74-3.42-4.11-5.14Z"/><path class="cls-3" d="M111.68,127.45a3.53,3.53,0,1,1,3.55-3.46A3.4,3.4,0,0,1,111.68,127.45Zm2.83-3.44a2.77,2.77,0,0,0-2.85-3,2.85,2.85,0,0,0-2.87,2.94,2.94,2.94,0,0,0,2.81,3A2.87,2.87,0,0,0,114.51,124Z"/><path class="cls-3" d="M129.76,124.33h-2c-.15-.48-.07-.7.45-.65.71.07,1.42.08,2.24.12,0,.81,0,1.59,0,2.37a.59.59,0,0,1-.2.37c-1.82,1.48-4.92,1.3-5.93-1.29a3.62,3.62,0,0,1,1.15-4.13,3.82,3.82,0,0,1,4.77.21l-.42.51c-.23-.16-.43-.3-.63-.42a2.88,2.88,0,0,0-4,1,2.94,2.94,0,0,0,4.2,4,.87.87,0,0,0,.32-.52C129.79,125.37,129.76,124.9,129.76,124.33Z"/><path class="cls-3" d="M138.62,127.36c-.55.24-.82,0-.91-.46-.24-1.16-1-1.45-2.05-1.28a2.24,2.24,0,0,1-.73,0c-1.23-.17-2.16.07-2.47,1.47,0,.18-.42.28-.64.42l-.13-.17c1-2.17,2-4.34,3-6.5.23-.5.79-.53,1-.06C136.66,123,137.64,125.16,138.62,127.36Zm-5.13-2.42h3.36c-.57-1.23-1.09-2.38-1.7-3.71Z"/><path class="cls-3" d="M156.9,122a3,3,0,0,0-2.89-.84,2.84,2.84,0,0,0-2.14,2.48,2.78,2.78,0,0,0,1.24,2.76,2.83,2.83,0,0,0,3.21,0c.29-.16.56-.74.93-.19.06.08-.37.6-.66.78a3.63,3.63,0,0,1-4.58-.65,3.6,3.6,0,0,1,4.77-5.3C157.13,121.24,157.66,121.5,156.9,122Z"/><path class="cls-3" d="M149.12,127.41h-.63v-6.85h.63Z"/><path class="cls-1" d="M115.78,81.7c1.68,9.19-11,22.94-20.26,22.08C95.2,93.64,103.68,83,115.78,81.7Z"/><path class="cls-1" d="M84.76,103.75c-9.32.69-21.93-12.91-20.26-21.87C74.8,82.2,85.22,92.39,84.76,103.75Z"/><path class="cls-1" d="M64.47,53.08c10.6.25,20,9.23,20.35,19.12C76.94,73.85,63.38,61.18,64.47,53.08Z"/><path class="cls-1" d="M37.28,125.84v-2.22c1,0,1.91-.06,2.83,0a1.06,1.06,0,0,1,1.06,1.18c0,.64-.42,1-1.19,1S38.21,125.84,37.28,125.84Z"/><path class="cls-1" d="M37.36,122V120c.84,0,1.65,0,2.45,0a.88.88,0,0,1,.08,1.74C39.07,121.89,38.24,121.91,37.36,122Z"/><path class="cls-1" d="M48.47,122.92v-2.85c.89,0,1.75,0,2.6,0a1.3,1.3,0,0,1,1.21,1.28,1.23,1.23,0,0,1-1.09,1.37C50.32,122.88,49.43,122.86,48.47,122.92Z"/><path class="cls-1" d="M84,124.18c.46-1.12.89-2.15,1.38-3.36.51,1.22.94,2.26,1.41,3.36Z"/><path class="cls-1" d="M27.51,120.62c.51,1.23.94,2.26,1.41,3.37H26.13C26.57,122.92,27,121.88,27.51,120.62Z"/><path class="cls-1" d="M61.66,120.61c.51,1.25,1,2.3,1.41,3.42h-2.8C60.71,122.93,61.14,121.88,61.66,120.61Z"/><path class="cls-1" d="M119.36,124.16c-1.52,0-1.54,0-1.52-1.58s-.34-1.47,1.51-1.49a9.79,9.79,0,0,1,1.32.11,1.36,1.36,0,0,1,1.23,1.27,1.25,1.25,0,0,1-1,1.48A10.9,10.9,0,0,1,119.36,124.16Z"/><path class="cls-1" d="M114.51,124a2.87,2.87,0,0,1-2.91,2.9,2.94,2.94,0,0,1-2.81-3,2.85,2.85,0,0,1,2.87-2.94A2.77,2.77,0,0,1,114.51,124Z"/><path class="cls-1" d="M133.49,124.94l1.66-3.71c.61,1.33,1.13,2.48,1.7,3.71Z"/><circle class="cls-5" cx="90" cy="90" r="84.56" transform="translate(-37.28 90) rotate(-45)"/></g></g></svg>